<?xml version="1.0" encoding="UTF-8" standalone="no"?>
<!DOCTYPE svg PUBLIC "-//W3C//DTD SVG 1.1//EN"
 "http://www.w3.org/Graphics/SVG/1.1/DTD/svg11.dtd">
<!-- Generated by graphviz version 2.38.0 (20140413.2041)
 -->
<!-- Title: %3 Pages: 1 -->
<svg width="5092pt" height="1231pt"
 viewBox="0.00 0.00 5092.39 1231.00" xmlns="http://www.w3.org/2000/svg" xmlns:xlink="http://www.w3.org/1999/xlink">
<g id="graph0" class="graph" transform="scale(1 1) rotate(0) translate(4 1227)">
<title>%3</title>
<polygon fill="white" stroke="none" points="-4,4 -4,-1227 5088.39,-1227 5088.39,4 -4,4"/>
<!-- post -->
<g id="node1" class="node"><title>post</title>
<path fill="none" stroke="black" d="M3625.41,-1187.05C3625.41,-1187.05 3633.96,-1187.14 3633.96,-1187.14 3634.12,-1187.15 3634.43,-1187.15 3634.59,-1187.15 3634.59,-1187.15 3643.05,-1187.29 3643.05,-1187.29 3643.2,-1187.29 3643.52,-1187.3 3643.67,-1187.3 3643.67,-1187.3 3652,-1187.48 3652,-1187.48 3652.16,-1187.49 3652.47,-1187.5 3652.63,-1187.5 3652.63,-1187.5 3660.79,-1187.73 3660.79,-1187.73 3660.94,-1187.73 3661.25,-1187.74 3661.41,-1187.75 3661.41,-1187.75 3669.37,-1188.02 3669.37,-1188.02 3669.52,-1188.02 3669.84,-1188.03 3669.99,-1188.04 3669.99,-1188.04 3677.71,-1188.35 3677.71,-1188.35 3677.87,-1188.36 3678.18,-1188.37 3678.34,-1188.38 3678.34,-1188.38 3685.79,-1188.73 3685.79,-1188.73 3685.94,-1188.74 3686.26,-1188.76 3686.41,-1188.77 3686.41,-1188.77 3693.56,-1189.16 3693.56,-1189.16 3693.72,-1189.17 3694.03,-1189.19 3694.19,-1189.2 3694.19,-1189.2 3701.01,-1189.63 3701.01,-1189.63 3701.16,-1189.64 3701.47,-1189.66 3701.63,-1189.67 3701.63,-1189.67 3708.1,-1190.14 3708.1,-1190.14 3708.25,-1190.15 3708.56,-1190.17 3708.72,-1190.19 3708.72,-1190.19 3714.8,-1190.69 3714.8,-1190.69 3714.96,-1190.7 3715.27,-1190.73 3715.43,-1190.74 3715.43,-1190.74 3721.11,-1191.28 3721.11,-1191.28 3721.26,-1191.29 3721.57,-1191.32 3721.73,-1191.34 3721.73,-1191.34 3726.99,-1191.91 3726.99,-1191.91 3727.14,-1191.92 3727.46,-1191.96 3727.61,-1191.98 3727.61,-1191.98 3732.43,-1192.57 3732.43,-1192.57 3732.59,-1192.59 3732.9,-1192.63 3733.05,-1192.65 3733.05,-1192.65 3737.42,-1193.26 3737.42,-1193.26 3737.57,-1193.28 3737.88,-1193.33 3738.03,-1193.36 3738.03,-1193.36 3741.93,-1193.99 3741.93,-1193.99 3742.09,-1194.01 3742.4,-1194.07 3742.55,-1194.1 3742.55,-1194.1 3745.97,-1194.74 3745.97,-1194.74 3746.13,-1194.77 3746.43,-1194.84 3746.59,-1194.87 3746.59,-1194.87 3749.53,-1195.52 3749.53,-1195.52 3749.68,-1195.56 3749.99,-1195.63 3750.14,-1195.67 3750.14,-1195.67 3752.6,-1196.33 3752.6,-1196.33 3752.75,-1196.37 3753.05,-1196.46 3753.2,-1196.51 3753.2,-1196.51 3755.18,-1197.15 3755.18,-1197.15 3755.33,-1197.2 3755.62,-1197.31 3755.76,-1197.37 3755.76,-1197.37 3757.27,-1197.99 3757.27,-1197.99 3757.41,-1198.05 3757.7,-1198.18 3757.83,-1198.26 3757.83,-1198.26 3758.88,-1198.84 3758.88,-1198.84 3759.02,-1198.91 3759.28,-1199.09 3759.4,-1199.19 3759.4,-1199.19 3760.02,-1199.69 3760.02,-1199.69 3760.14,-1199.79 3760.36,-1200.01 3760.45,-1200.14 3760.45,-1200.14 3760.72,-1200.54 3760.72,-1200.54 3760.81,-1200.67 3760.93,-1200.95 3760.96,-1201.1 3760.96,-1201.1 3761.02,-1201.41 3761.02,-1201.41 3761.05,-1201.56 3761.03,-1201.87 3760.98,-1202.02 3760.98,-1202.02 3760.88,-1202.35 3760.88,-1202.35 3760.84,-1202.5 3760.7,-1202.77 3760.6,-1202.9 3760.6,-1202.9 3760.26,-1203.34 3760.26,-1203.34 3760.16,-1203.46 3759.95,-1203.69 3759.83,-1203.79 3759.83,-1203.79 3759.16,-1204.33 3759.16,-1204.33 3759.04,-1204.43 3758.78,-1204.61 3758.65,-1204.69 3758.65,-1204.69 3757.62,-1205.31 3757.62,-1205.31 3757.49,-1205.39 3757.21,-1205.54 3757.07,-1205.61 3757.07,-1205.61 3755.68,-1206.28 3755.68,-1206.28 3755.54,-1206.34 3755.25,-1206.47 3755.1,-1206.53 3755.1,-1206.53 3753.35,-1207.23 3753.35,-1207.23 3753.21,-1207.29 3752.91,-1207.4 3752.77,-1207.45 3752.77,-1207.45 3750.67,-1208.18 3750.67,-1208.18 3750.52,-1208.23 3750.22,-1208.33 3750.07,-1208.37 3750.07,-1208.37 3747.64,-1209.11 3747.64,-1209.11 3747.49,-1209.16 3747.19,-1209.24 3747.04,-1209.29 3747.04,-1209.29 3744.3,-1210.03 3744.3,-1210.03 3744.15,-1210.07 3743.85,-1210.15 3743.69,-1210.19 3743.69,-1210.19 3740.66,-1210.94 3740.66,-1210.94 3740.51,-1210.97 3740.2,-1211.04 3740.05,-1211.08 3740.05,-1211.08 3736.74,-1211.82 3736.74,-1211.82 3736.59,-1211.86 3736.28,-1211.92 3736.13,-1211.95 3736.13,-1211.95 3732.57,-1212.69 3732.57,-1212.69 3732.41,-1212.72 3732.11,-1212.78 3731.95,-1212.81 3731.95,-1212.81 3728.16,-1213.53 3728.16,-1213.53 3728,-1213.56 3727.7,-1213.62 3727.54,-1213.65 3727.54,-1213.65 3723.53,-1214.35 3723.53,-1214.35 3723.38,-1214.38 3723.07,-1214.43 3722.91,-1214.46 3722.91,-1214.46 3718.7,-1215.15 3718.7,-1215.15 3718.55,-1215.17 3718.24,-1215.22 3718.09,-1215.25 3718.09,-1215.25 3713.7,-1215.91 3713.7,-1215.91 3713.54,-1215.94 3713.23,-1215.98 3713.08,-1216.01 3713.08,-1216.01 3708.53,-1216.65 3708.53,-1216.65 3708.38,-1216.67 3708.07,-1216.71 3707.91,-1216.73 3707.91,-1216.73 3703.22,-1217.35 3703.22,-1217.35 3703.07,-1217.37 3702.76,-1217.41 3702.6,-1217.43 3702.6,-1217.43 3697.78,-1218.02 3697.78,-1218.02 3697.63,-1218.04 3697.32,-1218.08 3697.16,-1218.1 3697.16,-1218.1 3692.23,-1218.66 3692.23,-1218.66 3692.07,-1218.67 3691.76,-1218.71 3691.61,-1218.72 3691.61,-1218.72 3686.57,-1219.25 3686.57,-1219.25 3686.42,-1219.27 3686.11,-1219.3 3685.95,-1219.32 3685.95,-1219.32 3680.83,-1219.81 3680.83,-1219.81 3680.68,-1219.82 3680.37,-1219.85 3680.21,-1219.87 3680.21,-1219.87 3675.02,-1220.33 3675.02,-1220.33 3674.86,-1220.34 3674.55,-1220.37 3674.39,-1220.38 3674.39,-1220.38 3669.13,-1220.8 3669.13,-1220.8 3668.98,-1220.81 3668.67,-1220.84 3668.51,-1220.85 3668.51,-1220.85 3663.2,-1221.23 3663.2,-1221.23 3663.04,-1221.24 3662.73,-1221.26 3662.57,-1221.27 3662.57,-1221.27 3657.22,-1221.62 3657.22,-1221.62 3657.06,-1221.63 3656.75,-1221.64 3656.59,-1221.65 3656.59,-1221.65 3651.19,-1221.96 3651.19,-1221.96 3651.04,-1221.96 3650.73,-1221.98 3650.57,-1221.99 3650.57,-1221.99 3645.14,-1222.25 3645.14,-1222.25 3644.99,-1222.26 3644.67,-1222.27 3644.52,-1222.28 3644.52,-1222.28 3639.06,-1222.5 3639.06,-1222.5 3638.91,-1222.5 3638.6,-1222.51 3638.44,-1222.52 3638.44,-1222.52 3632.97,-1222.69 3632.97,-1222.69 3632.81,-1222.7 3632.5,-1222.71 3632.34,-1222.71 3632.34,-1222.71 3626.86,-1222.84 3626.86,-1222.84 3626.7,-1222.85 3626.39,-1222.85 3626.23,-1222.86 3626.23,-1222.86 3620.73,-1222.95 3620.73,-1222.95 3620.58,-1222.95 3620.26,-1222.95 3620.11,-1222.95 3620.11,-1222.95 3614.6,-1223 3614.6,-1223 3614.45,-1223 3614.14,-1223 3613.98,-1223 3613.98,-1223 3608.47,-1223 3608.47,-1223 3608.32,-1223 3608,-1223 3607.85,-1223 3607.85,-1223 3602.34,-1222.95 3602.34,-1222.95 3602.19,-1222.95 3601.88,-1222.95 3601.72,-1222.95 3601.72,-1222.95 3596.22,-1222.86 3596.22,-1222.86 3596.07,-1222.85 3595.75,-1222.85 3595.6,-1222.84 3595.6,-1222.84 3590.11,-1222.71 3590.11,-1222.71 3589.95,-1222.71 3589.64,-1222.7 3589.48,-1222.69 3589.48,-1222.69 3584.01,-1222.52 3584.01,-1222.52 3583.86,-1222.51 3583.54,-1222.5 3583.39,-1222.5 3583.39,-1222.5 3577.93,-1222.28 3577.93,-1222.28 3577.78,-1222.27 3577.47,-1222.26 3577.31,-1222.25 3577.31,-1222.25 3571.88,-1221.99 3571.88,-1221.99 3571.73,-1221.98 3571.41,-1221.96 3571.26,-1221.96 3571.26,-1221.96 3565.86,-1221.65 3565.86,-1221.65 3565.7,-1221.64 3565.39,-1221.63 3565.24,-1221.62 3565.24,-1221.62 3559.88,-1221.27 3559.88,-1221.27 3559.72,-1221.26 3559.41,-1221.24 3559.25,-1221.23 3559.25,-1221.23 3553.94,-1220.85 3553.94,-1220.85 3553.79,-1220.84 3553.47,-1220.81 3553.32,-1220.8 3553.32,-1220.8 3548.06,-1220.38 3548.06,-1220.38 3547.9,-1220.37 3547.59,-1220.34 3547.44,-1220.33 3547.44,-1220.33 3542.24,-1219.87 3542.24,-1219.87 3542.09,-1219.85 3541.78,-1219.82 3541.62,-1219.81 3541.62,-1219.81 3536.5,-1219.32 3536.5,-1219.32 3536.35,-1219.3 3536.03,-1219.27 3535.88,-1219.25 3535.88,-1219.25 3530.85,-1218.72 3530.85,-1218.72 3530.69,-1218.71 3530.38,-1218.67 3530.22,-1218.66 3530.22,-1218.66 3525.29,-1218.1 3525.29,-1218.1 3525.14,-1218.08 3524.83,-1218.04 3524.67,-1218.02 3524.67,-1218.02 3519.85,-1217.43 3519.85,-1217.43 3519.7,-1217.41 3519.39,-1217.37 3519.23,-1217.35 3519.23,-1217.35 3514.54,-1216.73 3514.54,-1216.73 3514.38,-1216.71 3514.07,-1216.67 3513.92,-1216.65 3513.92,-1216.65 3509.37,-1216.01 3509.37,-1216.01 3509.22,-1215.98 3508.91,-1215.94 3508.75,-1215.91 3508.75,-1215.91 3504.37,-1215.25 3504.37,-1215.25 3504.21,-1215.22 3503.9,-1215.17 3503.75,-1215.15 3503.75,-1215.15 3499.54,-1214.46 3499.54,-1214.46 3499.39,-1214.43 3499.08,-1214.38 3498.92,-1214.35 3498.92,-1214.35 3494.91,-1213.65 3494.91,-1213.65 3494.76,-1213.62 3494.45,-1213.56 3494.3,-1213.53 3494.3,-1213.53 3490.5,-1212.81 3490.5,-1212.81 3490.34,-1212.78 3490.04,-1212.72 3489.88,-1212.69 3489.88,-1212.69 3486.32,-1211.95 3486.32,-1211.95 3486.17,-1211.92 3485.86,-1211.86 3485.71,-1211.82 3485.71,-1211.82 3482.4,-1211.08 3482.4,-1211.08 3482.25,-1211.04 3481.94,-1210.97 3481.79,-1210.94 3481.79,-1210.94 3478.76,-1210.19 3478.76,-1210.19 3478.61,-1210.15 3478.3,-1210.07 3478.15,-1210.03 3478.15,-1210.03 3475.41,-1209.29 3475.41,-1209.29 3475.26,-1209.24 3474.96,-1209.16 3474.81,-1209.11 3474.81,-1209.11 3472.38,-1208.37 3472.38,-1208.37 3472.23,-1208.33 3471.93,-1208.23 3471.79,-1208.18 3471.79,-1208.18 3469.69,-1207.45 3469.69,-1207.45 3469.54,-1207.4 3469.25,-1207.29 3469.1,-1207.23 3469.1,-1207.23 3467.35,-1206.53 3467.35,-1206.53 3467.2,-1206.47 3466.92,-1206.34 3466.78,-1206.28 3466.78,-1206.28 3465.38,-1205.61 3465.38,-1205.61 3465.24,-1205.54 3464.97,-1205.39 3464.83,-1205.31 3464.83,-1205.31 3463.8,-1204.69 3463.8,-1204.69 3463.67,-1204.61 3463.42,-1204.43 3463.29,-1204.33 3463.29,-1204.33 3462.63,-1203.79 3462.63,-1203.79 3462.51,-1203.69 3462.29,-1203.46 3462.19,-1203.34 3462.19,-1203.34 3461.85,-1202.9 3461.85,-1202.9 3461.76,-1202.77 3461.61,-1202.5 3461.57,-1202.35 3461.57,-1202.35 3461.47,-1202.02 3461.47,-1202.02 3461.42,-1201.87 3461.41,-1201.56 3461.43,-1201.41 3461.43,-1201.41 3461.49,-1201.1 3461.49,-1201.1 3461.52,-1200.95 3461.64,-1200.67 3461.73,-1200.54 3461.73,-1200.54 3462.01,-1200.14 3462.01,-1200.14 3462.1,-1200.01 3462.31,-1199.79 3462.43,-1199.69 3462.43,-1199.69 3463.05,-1199.19 3463.05,-1199.19 3463.18,-1199.09 3463.44,-1198.91 3463.57,-1198.84 3463.57,-1198.84 3464.62,-1198.26 3464.62,-1198.26 3464.76,-1198.18 3465.04,-1198.05 3465.18,-1197.99 3465.18,-1197.99 3466.69,-1197.37 3466.69,-1197.37 3466.83,-1197.31 3467.13,-1197.2 3467.27,-1197.15 3467.27,-1197.15 3469.25,-1196.51 3469.25,-1196.51 3469.4,-1196.46 3469.7,-1196.37 3469.85,-1196.33 3469.85,-1196.33 3472.31,-1195.67 3472.31,-1195.67 3472.47,-1195.63 3472.77,-1195.56 3472.92,-1195.52 3472.92,-1195.52 3475.87,-1194.87 3475.87,-1194.87 3476.02,-1194.84 3476.32,-1194.77 3476.48,-1194.74 3476.48,-1194.74 3479.9,-1194.1 3479.9,-1194.1 3480.06,-1194.07 3480.36,-1194.01 3480.52,-1193.99 3480.52,-1193.99 3484.42,-1193.36 3484.42,-1193.36 3484.57,-1193.33 3484.88,-1193.28 3485.04,-1193.26 3485.04,-1193.26 3489.4,-1192.65 3489.4,-1192.65 3489.56,-1192.63 3489.87,-1192.59 3490.02,-1192.57 3490.02,-1192.57 3494.84,-1191.98 3494.84,-1191.98 3495,-1191.96 3495.31,-1191.92 3495.46,-1191.91 3495.46,-1191.91 3500.72,-1191.34 3500.72,-1191.34 3500.88,-1191.32 3501.19,-1191.29 3501.34,-1191.28 3501.34,-1191.28 3507.03,-1190.74 3507.03,-1190.74 3507.18,-1190.73 3507.49,-1190.7 3507.65,-1190.69 3507.65,-1190.69 3513.73,-1190.19 3513.73,-1190.19 3513.89,-1190.17 3514.2,-1190.15 3514.36,-1190.14 3514.36,-1190.14 3520.82,-1189.67 3520.82,-1189.67 3520.98,-1189.66 3521.29,-1189.64 3521.45,-1189.63 3521.45,-1189.63 3528.27,-1189.2 3528.27,-1189.2 3528.42,-1189.19 3528.73,-1189.17 3528.89,-1189.16 3528.89,-1189.16 3536.04,-1188.77 3536.04,-1188.77 3536.2,-1188.76 3536.51,-1188.74 3536.66,-1188.73 3536.66,-1188.73 3544.11,-1188.38 3544.11,-1188.38 3544.27,-1188.37 3544.58,-1188.36 3544.74,-1188.35 3544.74,-1188.35 3552.46,-1188.04 3552.46,-1188.04 3552.62,-1188.03 3552.93,-1188.02 3553.08,-1188.02 3553.08,-1188.02 3561.04,-1187.75 3561.04,-1187.75 3561.2,-1187.74 3561.51,-1187.73 3561.67,-1187.73 3561.67,-1187.73 3569.83,-1187.5 3569.83,-1187.5 3569.98,-1187.5 3570.3,-1187.49 3570.45,-1187.48 3570.45,-1187.48 3578.78,-1187.3 3578.78,-1187.3 3578.94,-1187.3 3579.25,-1187.29 3579.41,-1187.29 3579.41,-1187.29 3587.87,-1187.15 3587.87,-1187.15 3588.02,-1187.15 3588.34,-1187.15 3588.49,-1187.14 3588.49,-1187.14 3597.05,-1187.05 3597.05,-1187.05 3597.2,-1187.05 3597.52,-1187.05 3597.67,-1187.05 3597.67,-1187.05 3606.28,-1187 3606.28,-1187 3606.44,-1187 3606.75,-1187 3606.91,-1187 3606.91,-1187 3615.54,-1187 3615.54,-1187 3615.7,-1187 3616.01,-1187 3616.17,-1187 3616.17,-1187 3624.78,-1187.05 3624.78,-1187.05 3624.94,-1187.05 3625.25,-1187.05 3625.41,-1187.05"/>
<text text-anchor="middle" x="3611.23" y="-1200.8" font-family="Times,serif" font-size="14.00">An Offensive Post, Tumblr, or Reply</text>
</g>
<!-- block -->
<g id="node3" class="node"><title>block</title>
<polygon fill="none" stroke="black" points="3612.1,-1150 3532.35,-1150 3532.35,-1114 3612.1,-1114 3612.1,-1150"/>
<text text-anchor="middle" x="3572.23" y="-1127.8" font-family="Times,serif" font-size="14.00">Block User</text>
</g>
<!-- post&#45;&gt;block -->
<g id="edge1" class="edge"><title>post&#45;&gt;block</title>
<path fill="none" stroke="black" d="M3601.79,-1186.81C3597.19,-1178.44 3591.56,-1168.2 3586.45,-1158.9"/>
<polygon fill="black" stroke="black" points="3589.46,-1157.11 3581.58,-1150.03 3583.33,-1160.48 3589.46,-1157.11"/>
</g>
<!-- report -->
<g id="node4" class="node"><title>report</title>
<polygon fill="none" stroke="black" points="3779.11,-1150 3629.34,-1150 3629.34,-1114 3779.11,-1114 3779.11,-1150"/>
<text text-anchor="middle" x="3704.23" y="-1127.8" font-family="Times,serif" font-size="14.00">Report User/Post/Reply</text>
</g>
<!-- post&#45;&gt;report -->
<g id="edge2" class="edge"><title>post&#45;&gt;report</title>
<path fill="none" stroke="black" d="M3633.74,-1186.81C3645.73,-1177.66 3660.66,-1166.26 3673.69,-1156.32"/>
<polygon fill="black" stroke="black" points="3676.1,-1158.88 3681.92,-1150.03 3671.85,-1153.32 3676.1,-1158.88"/>
</g>
<!-- ad -->
<g id="node2" class="node"><title>ad</title>
<path fill="none" stroke="black" d="M3903.07,-1187.05C3903.07,-1187.05 3909.42,-1187.14 3909.42,-1187.14 3909.57,-1187.15 3909.88,-1187.15 3910.04,-1187.15 3910.04,-1187.15 3916.32,-1187.29 3916.32,-1187.29 3916.47,-1187.29 3916.78,-1187.3 3916.94,-1187.3 3916.94,-1187.3 3923.12,-1187.48 3923.12,-1187.48 3923.27,-1187.49 3923.58,-1187.5 3923.74,-1187.5 3923.74,-1187.5 3929.79,-1187.72 3929.79,-1187.72 3929.95,-1187.73 3930.26,-1187.74 3930.41,-1187.75 3930.41,-1187.75 3936.31,-1188.01 3936.31,-1188.01 3936.46,-1188.02 3936.77,-1188.03 3936.93,-1188.04 3936.93,-1188.04 3942.65,-1188.35 3942.65,-1188.35 3942.8,-1188.36 3943.11,-1188.37 3943.27,-1188.38 3943.27,-1188.38 3948.78,-1188.73 3948.78,-1188.73 3948.93,-1188.74 3949.24,-1188.76 3949.4,-1188.77 3949.4,-1188.77 3954.68,-1189.15 3954.68,-1189.15 3954.84,-1189.16 3955.15,-1189.19 3955.3,-1189.2 3955.3,-1189.2 3960.34,-1189.62 3960.34,-1189.62 3960.49,-1189.63 3960.8,-1189.66 3960.95,-1189.68 3960.95,-1189.68 3965.72,-1190.13 3965.72,-1190.13 3965.87,-1190.15 3966.18,-1190.18 3966.34,-1190.19 3966.34,-1190.19 3970.81,-1190.68 3970.81,-1190.68 3970.97,-1190.7 3971.28,-1190.73 3971.43,-1190.75 3971.43,-1190.75 3975.6,-1191.27 3975.6,-1191.27 3975.76,-1191.29 3976.06,-1191.33 3976.22,-1191.35 3976.22,-1191.35 3980.07,-1191.9 3980.07,-1191.9 3980.22,-1191.92 3980.53,-1191.96 3980.68,-1191.99 3980.68,-1191.99 3984.2,-1192.56 3984.2,-1192.56 3984.35,-1192.58 3984.66,-1192.63 3984.81,-1192.66 3984.81,-1192.66 3987.99,-1193.25 3987.99,-1193.25 3988.14,-1193.28 3988.44,-1193.34 3988.6,-1193.37 3988.6,-1193.37 3991.42,-1193.97 3991.42,-1193.97 3991.57,-1194.01 3991.87,-1194.08 3992.02,-1194.11 3992.02,-1194.11 3994.49,-1194.73 3994.49,-1194.73 3994.64,-1194.76 3994.94,-1194.84 3995.09,-1194.89 3995.09,-1194.89 3997.19,-1195.5 3997.19,-1195.5 3997.34,-1195.55 3997.64,-1195.64 3997.78,-1195.69 3997.78,-1195.69 3999.53,-1196.31 3999.53,-1196.31 3999.67,-1196.36 3999.96,-1196.47 4000.1,-1196.53 4000.1,-1196.53 4001.49,-1197.13 4001.49,-1197.13 4001.63,-1197.19 4001.91,-1197.32 4002.05,-1197.4 4002.05,-1197.4 4003.08,-1197.96 4003.08,-1197.96 4003.22,-1198.04 4003.48,-1198.2 4003.61,-1198.29 4003.61,-1198.29 4004.32,-1198.81 4004.32,-1198.81 4004.44,-1198.9 4004.67,-1199.1 4004.78,-1199.22 4004.78,-1199.22 4005.2,-1199.66 4005.2,-1199.66 4005.31,-1199.77 4005.48,-1200.02 4005.56,-1200.16 4005.56,-1200.16 4005.75,-1200.52 4005.75,-1200.52 4005.82,-1200.66 4005.92,-1200.95 4005.94,-1201.1 4005.94,-1201.1 4005.98,-1201.41 4005.98,-1201.41 4006,-1201.56 4005.99,-1201.87 4005.96,-1202.02 4005.96,-1202.02 4005.88,-1202.35 4005.88,-1202.35 4005.85,-1202.5 4005.73,-1202.78 4005.65,-1202.92 4005.65,-1202.92 4005.42,-1203.32 4005.42,-1203.32 4005.34,-1203.45 4005.16,-1203.7 4005.05,-1203.81 4005.05,-1203.81 4004.6,-1204.3 4004.6,-1204.3 4004.49,-1204.41 4004.26,-1204.63 4004.14,-1204.72 4004.14,-1204.72 4003.44,-1205.28 4003.44,-1205.28 4003.32,-1205.37 4003.07,-1205.55 4002.94,-1205.64 4002.94,-1205.64 4001.97,-1206.25 4001.97,-1206.25 4001.84,-1206.33 4001.57,-1206.49 4001.44,-1206.56 4001.44,-1206.56 4000.21,-1207.21 4000.21,-1207.21 4000.08,-1207.28 3999.8,-1207.41 3999.66,-1207.48 3999.66,-1207.48 3998.18,-1208.15 3998.18,-1208.15 3998.04,-1208.22 3997.75,-1208.34 3997.61,-1208.4 3997.61,-1208.4 3995.89,-1209.09 3995.89,-1209.09 3995.74,-1209.15 3995.45,-1209.26 3995.31,-1209.31 3995.31,-1209.31 3993.35,-1210.01 3993.35,-1210.01 3993.2,-1210.06 3992.91,-1210.16 3992.76,-1210.21 3992.76,-1210.21 3990.59,-1210.91 3990.59,-1210.91 3990.44,-1210.96 3990.14,-1211.05 3989.99,-1211.1 3989.99,-1211.1 3987.61,-1211.8 3987.61,-1211.8 3987.46,-1211.85 3987.17,-1211.93 3987.02,-1211.97 3987.02,-1211.97 3984.44,-1212.67 3984.44,-1212.67 3984.29,-1212.71 3983.99,-1212.79 3983.84,-1212.83 3983.84,-1212.83 3981.09,-1213.52 3981.09,-1213.52 3980.94,-1213.55 3980.64,-1213.63 3980.49,-1213.66 3980.49,-1213.66 3977.58,-1214.34 3977.58,-1214.34 3977.43,-1214.37 3977.13,-1214.44 3976.98,-1214.47 3976.98,-1214.47 3973.92,-1215.13 3973.92,-1215.13 3973.77,-1215.17 3973.46,-1215.23 3973.31,-1215.26 3973.31,-1215.26 3970.12,-1215.9 3970.12,-1215.9 3969.96,-1215.93 3969.66,-1215.99 3969.51,-1216.02 3969.51,-1216.02 3966.19,-1216.64 3966.19,-1216.64 3966.04,-1216.67 3965.74,-1216.72 3965.58,-1216.75 3965.58,-1216.75 3962.16,-1217.34 3962.16,-1217.34 3962.01,-1217.37 3961.7,-1217.42 3961.55,-1217.44 3961.55,-1217.44 3958.03,-1218.01 3958.03,-1218.01 3957.88,-1218.04 3957.57,-1218.08 3957.42,-1218.11 3957.42,-1218.11 3953.81,-1218.65 3953.81,-1218.65 3953.66,-1218.67 3953.35,-1218.71 3953.2,-1218.73 3953.2,-1218.73 3949.52,-1219.24 3949.52,-1219.24 3949.36,-1219.26 3949.06,-1219.3 3948.9,-1219.32 3948.9,-1219.32 3945.16,-1219.8 3945.16,-1219.8 3945,-1219.82 3944.7,-1219.86 3944.54,-1219.88 3944.54,-1219.88 3940.74,-1220.32 3940.74,-1220.32 3940.59,-1220.33 3940.28,-1220.37 3940.12,-1220.39 3940.12,-1220.39 3936.28,-1220.79 3936.28,-1220.79 3936.12,-1220.81 3935.81,-1220.84 3935.66,-1220.85 3935.66,-1220.85 3931.77,-1221.22 3931.77,-1221.22 3931.61,-1221.24 3931.3,-1221.27 3931.15,-1221.28 3931.15,-1221.28 3927.22,-1221.61 3927.22,-1221.61 3927.07,-1221.62 3926.76,-1221.65 3926.61,-1221.66 3926.61,-1221.66 3922.65,-1221.95 3922.65,-1221.95 3922.5,-1221.96 3922.19,-1221.98 3922.03,-1221.99 3922.03,-1221.99 3918.06,-1222.25 3918.06,-1222.25 3917.9,-1222.25 3917.59,-1222.27 3917.44,-1222.28 3917.44,-1222.28 3913.44,-1222.49 3913.44,-1222.49 3913.29,-1222.5 3912.98,-1222.52 3912.82,-1222.52 3912.82,-1222.52 3908.81,-1222.69 3908.81,-1222.69 3908.65,-1222.7 3908.34,-1222.71 3908.19,-1222.71 3908.19,-1222.71 3904.17,-1222.84 3904.17,-1222.84 3904.01,-1222.85 3903.7,-1222.86 3903.55,-1222.86 3903.55,-1222.86 3899.52,-1222.94 3899.52,-1222.94 3899.36,-1222.95 3899.05,-1222.95 3898.9,-1222.95 3898.9,-1222.95 3894.86,-1223 3894.86,-1223 3894.71,-1223 3894.4,-1223 3894.24,-1223 3894.24,-1223 3890.21,-1223 3890.21,-1223 3890.05,-1223 3889.74,-1223 3889.59,-1223 3889.59,-1223 3885.55,-1222.95 3885.55,-1222.95 3885.4,-1222.95 3885.09,-1222.95 3884.93,-1222.94 3884.93,-1222.94 3880.9,-1222.86 3880.9,-1222.86 3880.75,-1222.86 3880.44,-1222.85 3880.28,-1222.84 3880.28,-1222.84 3876.26,-1222.71 3876.26,-1222.71 3876.11,-1222.71 3875.8,-1222.7 3875.64,-1222.69 3875.64,-1222.69 3871.63,-1222.52 3871.63,-1222.52 3871.48,-1222.52 3871.17,-1222.5 3871.01,-1222.49 3871.01,-1222.49 3867.02,-1222.28 3867.02,-1222.28 3866.86,-1222.27 3866.55,-1222.25 3866.4,-1222.25 3866.4,-1222.25 3862.42,-1221.99 3862.42,-1221.99 3862.26,-1221.98 3861.95,-1221.96 3861.8,-1221.95 3861.8,-1221.95 3857.85,-1221.66 3857.85,-1221.66 3857.69,-1221.65 3857.38,-1221.62 3857.23,-1221.61 3857.23,-1221.61 3853.3,-1221.28 3853.3,-1221.28 3853.15,-1221.27 3852.84,-1221.24 3852.68,-1221.22 3852.68,-1221.22 3848.79,-1220.85 3848.79,-1220.85 3848.64,-1220.84 3848.33,-1220.81 3848.18,-1220.79 3848.18,-1220.79 3844.33,-1220.39 3844.33,-1220.39 3844.17,-1220.37 3843.86,-1220.33 3843.71,-1220.32 3843.71,-1220.32 3839.91,-1219.88 3839.91,-1219.88 3839.76,-1219.86 3839.45,-1219.82 3839.29,-1219.8 3839.29,-1219.8 3835.55,-1219.32 3835.55,-1219.32 3835.4,-1219.3 3835.09,-1219.26 3834.93,-1219.24 3834.93,-1219.24 3831.25,-1218.73 3831.25,-1218.73 3831.1,-1218.71 3830.79,-1218.67 3830.64,-1218.65 3830.64,-1218.65 3827.04,-1218.11 3827.04,-1218.11 3826.88,-1218.08 3826.58,-1218.04 3826.42,-1218.01 3826.42,-1218.01 3822.9,-1217.44 3822.9,-1217.44 3822.75,-1217.42 3822.44,-1217.37 3822.29,-1217.34 3822.29,-1217.34 3818.87,-1216.75 3818.87,-1216.75 3818.72,-1216.72 3818.41,-1216.67 3818.26,-1216.64 3818.26,-1216.64 3814.95,-1216.02 3814.95,-1216.02 3814.79,-1215.99 3814.49,-1215.93 3814.34,-1215.9 3814.34,-1215.9 3811.14,-1215.26 3811.14,-1215.26 3810.99,-1215.23 3810.69,-1215.17 3810.54,-1215.13 3810.54,-1215.13 3807.48,-1214.47 3807.48,-1214.47 3807.33,-1214.44 3807.02,-1214.37 3806.87,-1214.34 3806.87,-1214.34 3803.96,-1213.66 3803.96,-1213.66 3803.81,-1213.63 3803.51,-1213.55 3803.36,-1213.52 3803.36,-1213.52 3800.61,-1212.83 3800.61,-1212.83 3800.46,-1212.79 3800.16,-1212.71 3800.01,-1212.67 3800.01,-1212.67 3797.44,-1211.97 3797.44,-1211.97 3797.29,-1211.93 3796.99,-1211.85 3796.84,-1211.8 3796.84,-1211.8 3794.46,-1211.1 3794.46,-1211.1 3794.31,-1211.05 3794.01,-1210.96 3793.87,-1210.91 3793.87,-1210.91 3791.69,-1210.21 3791.69,-1210.21 3791.54,-1210.16 3791.25,-1210.06 3791.1,-1210.01 3791.1,-1210.01 3789.15,-1209.31 3789.15,-1209.31 3789,-1209.26 3788.71,-1209.15 3788.57,-1209.09 3788.57,-1209.09 3786.84,-1208.4 3786.84,-1208.4 3786.7,-1208.34 3786.41,-1208.22 3786.27,-1208.15 3786.27,-1208.15 3784.79,-1207.48 3784.79,-1207.48 3784.65,-1207.41 3784.37,-1207.28 3784.24,-1207.21 3784.24,-1207.21 3783.01,-1206.56 3783.01,-1206.56 3782.88,-1206.49 3782.61,-1206.33 3782.48,-1206.25 3782.48,-1206.25 3781.52,-1205.64 3781.52,-1205.64 3781.38,-1205.55 3781.13,-1205.37 3781.01,-1205.28 3781.01,-1205.28 3780.31,-1204.72 3780.31,-1204.72 3780.19,-1204.63 3779.96,-1204.41 3779.85,-1204.3 3779.85,-1204.3 3779.4,-1203.81 3779.4,-1203.81 3779.3,-1203.7 3779.11,-1203.45 3779.03,-1203.32 3779.03,-1203.32 3778.8,-1202.92 3778.8,-1202.92 3778.72,-1202.78 3778.61,-1202.5 3778.57,-1202.35 3778.57,-1202.35 3778.5,-1202.02 3778.5,-1202.02 3778.46,-1201.87 3778.45,-1201.56 3778.47,-1201.41 3778.47,-1201.41 3778.51,-1201.1 3778.51,-1201.1 3778.53,-1200.95 3778.63,-1200.66 3778.7,-1200.52 3778.7,-1200.52 3778.89,-1200.16 3778.89,-1200.16 3778.97,-1200.02 3779.15,-1199.77 3779.25,-1199.66 3779.25,-1199.66 3779.67,-1199.22 3779.67,-1199.22 3779.78,-1199.1 3780.01,-1198.9 3780.14,-1198.81 3780.14,-1198.81 3780.85,-1198.29 3780.85,-1198.29 3780.97,-1198.2 3781.23,-1198.04 3781.37,-1197.96 3781.37,-1197.96 3782.41,-1197.4 3782.41,-1197.4 3782.54,-1197.32 3782.82,-1197.19 3782.96,-1197.13 3782.96,-1197.13 3784.35,-1196.53 3784.35,-1196.53 3784.49,-1196.47 3784.78,-1196.36 3784.93,-1196.31 3784.93,-1196.31 3786.67,-1195.69 3786.67,-1195.69 3786.82,-1195.64 3787.11,-1195.55 3787.26,-1195.5 3787.26,-1195.5 3789.36,-1194.89 3789.36,-1194.89 3789.51,-1194.84 3789.81,-1194.76 3789.96,-1194.73 3789.96,-1194.73 3792.43,-1194.11 3792.43,-1194.11 3792.58,-1194.08 3792.88,-1194.01 3793.03,-1193.97 3793.03,-1193.97 3795.86,-1193.37 3795.86,-1193.37 3796.01,-1193.34 3796.31,-1193.28 3796.46,-1193.25 3796.46,-1193.25 3799.64,-1192.66 3799.64,-1192.66 3799.79,-1192.63 3800.1,-1192.58 3800.25,-1192.56 3800.25,-1192.56 3803.77,-1191.99 3803.77,-1191.99 3803.92,-1191.96 3804.23,-1191.92 3804.38,-1191.9 3804.38,-1191.9 3808.23,-1191.35 3808.23,-1191.35 3808.39,-1191.33 3808.7,-1191.29 3808.85,-1191.27 3808.85,-1191.27 3813.02,-1190.75 3813.02,-1190.75 3813.18,-1190.73 3813.48,-1190.7 3813.64,-1190.68 3813.64,-1190.68 3818.12,-1190.19 3818.12,-1190.19 3818.27,-1190.18 3818.58,-1190.15 3818.73,-1190.13 3818.73,-1190.13 3823.5,-1189.68 3823.5,-1189.68 3823.65,-1189.66 3823.96,-1189.63 3824.12,-1189.62 3824.12,-1189.62 3829.15,-1189.2 3829.15,-1189.2 3829.31,-1189.19 3829.62,-1189.16 3829.77,-1189.15 3829.77,-1189.15 3835.06,-1188.77 3835.06,-1188.77 3835.21,-1188.76 3835.52,-1188.74 3835.67,-1188.73 3835.67,-1188.73 3841.19,-1188.38 3841.19,-1188.38 3841.34,-1188.37 3841.65,-1188.36 3841.81,-1188.35 3841.81,-1188.35 3847.52,-1188.04 3847.52,-1188.04 3847.68,-1188.03 3847.99,-1188.02 3848.14,-1188.01 3848.14,-1188.01 3854.04,-1187.75 3854.04,-1187.75 3854.2,-1187.74 3854.51,-1187.73 3854.66,-1187.72 3854.66,-1187.72 3860.71,-1187.5 3860.71,-1187.5 3860.87,-1187.5 3861.18,-1187.49 3861.33,-1187.48 3861.33,-1187.48 3867.51,-1187.3 3867.51,-1187.3 3867.67,-1187.3 3867.98,-1187.29 3868.13,-1187.29 3868.13,-1187.29 3874.41,-1187.15 3874.41,-1187.15 3874.57,-1187.15 3874.88,-1187.15 3875.03,-1187.14 3875.03,-1187.14 3881.39,-1187.05 3881.39,-1187.05 3881.54,-1187.05 3881.85,-1187.05 3882.01,-1187.05 3882.01,-1187.05 3888.4,-1187 3888.4,-1187 3888.56,-1187 3888.87,-1187 3889.02,-1187 3889.02,-1187 3895.43,-1187 3895.43,-1187 3895.59,-1187 3895.9,-1187 3896.05,-1187 3896.05,-1187 3902.45,-1187.05 3902.45,-1187.05 3902.6,-1187.05 3902.91,-1187.05 3903.07,-1187.05"/>
<text text-anchor="middle" x="3892.23" y="-1200.8" font-family="Times,serif" font-size="14.00">An Offensive or broken Ad</text>
</g>
<!-- report_ad -->
<g id="node5" class="node"><title>report_ad</title>
<polygon fill="none" stroke="black" points="3947.63,-1150 3836.82,-1150 3836.82,-1114 3947.63,-1114 3947.63,-1150"/>
<text text-anchor="middle" x="3892.23" y="-1127.8" font-family="Times,serif" font-size="14.00">Report Shitty Ad</text>
</g>
<!-- ad&#45;&gt;report_ad -->
<g id="edge3" class="edge"><title>ad&#45;&gt;report_ad</title>
<path fill="none" stroke="black" d="M3892.23,-1186.81C3892.23,-1178.79 3892.23,-1169.05 3892.23,-1160.07"/>
<polygon fill="black" stroke="black" points="3895.73,-1160.03 3892.23,-1150.03 3888.73,-1160.03 3895.73,-1160.03"/>
</g>
<!-- whaddap -->
<g id="node6" class="node"><title>whaddap</title>
<polygon fill="none" stroke="black" points="3704.23,-1064 3531.9,-1046 3704.23,-1028 3876.55,-1046 3704.23,-1064"/>
<text text-anchor="middle" x="3704.23" y="-1041.8" font-family="Times,serif" font-size="14.00">Report This: What&#39;s Going On?</text>
</g>
<!-- report&#45;&gt;whaddap -->
<g id="edge4" class="edge"><title>report&#45;&gt;whaddap</title>
<path fill="none" stroke="black" d="M3704.23,-1113.6C3704.23,-1102.26 3704.23,-1087.23 3704.23,-1074.32"/>
<polygon fill="black" stroke="black" points="3707.73,-1074.1 3704.23,-1064.1 3700.73,-1074.1 3707.73,-1074.1"/>
<text text-anchor="middle" x="3713.56" y="-1084.8" font-family="Times,serif" font-size="14.00">yes</text>
</g>
<!-- filter_this -->
<g id="node7" class="node"><title>filter_this</title>
<polygon fill="none" stroke="black" points="3530.32,-984 3198.13,-984 3198.13,-948 3530.32,-948 3530.32,-984"/>
<text text-anchor="middle" x="3364.23" y="-968.8" font-family="Times,serif" font-size="14.00">Filter the Post/User/Reply</text>
<text text-anchor="middle" x="3364.23" y="-954.8" font-family="Times,serif" font-size="14.00"> &#160;&#160;&#160;(Does this item apply to users? Can users be filtered?)</text>
</g>
<!-- whaddap&#45;&gt;filter_this -->
<g id="edge5" class="edge"><title>whaddap&#45;&gt;filter_this</title>
<path fill="none" stroke="black" d="M3652.96,-1033.24C3598.9,-1020.84 3512.84,-1001.09 3448.72,-986.385"/>
<polygon fill="black" stroke="black" points="3449.16,-982.894 3438.63,-984.069 3447.6,-989.717 3449.16,-982.894"/>
</g>
<!-- this_is_spam -->
<g id="node8" class="node"><title>this_is_spam</title>
<polygon fill="none" stroke="black" points="3860.45,-991 3548,-991 3548,-941 3860.45,-941 3860.45,-991"/>
<text text-anchor="middle" x="3704.23" y="-975.8" font-family="Times,serif" font-size="14.00">Mark post/reply as spam</text>
<text text-anchor="middle" x="3704.23" y="-961.8" font-family="Times,serif" font-size="14.00"> &#160;&#160;&#160;(Does this item apply to users?</text>
<text text-anchor="middle" x="3704.23" y="-947.8" font-family="Times,serif" font-size="14.00"> &#160;&#160;&#160;Maybe copy can reflect &#39;Mark users as spammers&#39;)</text>
</g>
<!-- whaddap&#45;&gt;this_is_spam -->
<g id="edge6" class="edge"><title>whaddap&#45;&gt;this_is_spam</title>
<path fill="none" stroke="black" d="M3704.23,-1027.69C3704.23,-1019.86 3704.23,-1010.33 3704.23,-1001.16"/>
<polygon fill="black" stroke="black" points="3707.73,-1001.07 3704.23,-991.066 3700.73,-1001.07 3707.73,-1001.07"/>
</g>
<!-- violates_community_guidelines -->
<g id="node9" class="node"><title>violates_community_guidelines</title>
<polygon fill="none" stroke="black" points="4223.54,-984 3878.91,-984 3878.91,-948 4223.54,-948 4223.54,-984"/>
<text text-anchor="middle" x="4051.23" y="-961.8" font-family="Times,serif" font-size="14.00">This item/person violates Tumblr&#39;s Community Guidelines</text>
</g>
<!-- whaddap&#45;&gt;violates_community_guidelines -->
<g id="edge7" class="edge"><title>whaddap&#45;&gt;violates_community_guidelines</title>
<path fill="none" stroke="black" d="M3756.18,-1033.32C3811.47,-1020.89 3899.88,-1001.02 3965.52,-986.265"/>
<polygon fill="black" stroke="black" points="3966.45,-989.643 3975.44,-984.035 3964.92,-982.814 3966.45,-989.643"/>
</g>
<!-- what_kind -->
<g id="node10" class="node"><title>what_kind</title>
<polygon fill="none" stroke="black" points="4051.23,-904 3834.44,-826 4051.23,-748 4268.01,-826 4051.23,-904"/>
<text text-anchor="middle" x="4051.23" y="-849.8" font-family="Times,serif" font-size="14.00">What kind of Violation is it?</text>
<text text-anchor="middle" x="4051.23" y="-835.8" font-family="Times,serif" font-size="14.00"> &#160;&#160;&#160;&#45; Someone is at risk of harm</text>
<text text-anchor="middle" x="4051.23" y="-821.8" font-family="Times,serif" font-size="14.00"> &#160;&#160;&#160;&#45; Misuse of your identity or work</text>
<text text-anchor="middle" x="4051.23" y="-807.8" font-family="Times,serif" font-size="14.00"> &#160;&#160;&#160;&#45; This content is gross or hateful</text>
<text text-anchor="middle" x="4051.23" y="-793.8" font-family="Times,serif" font-size="14.00"> &#160;&#160;&#160;&#45; Some other reason</text>
</g>
<!-- violates_community_guidelines&#45;&gt;what_kind -->
<g id="edge8" class="edge"><title>violates_community_guidelines&#45;&gt;what_kind</title>
<path fill="none" stroke="black" d="M4051.23,-947.801C4051.23,-938.793 4051.23,-927.01 4051.23,-914.336"/>
<polygon fill="black" stroke="black" points="4054.73,-914.018 4051.23,-904.018 4047.73,-914.018 4054.73,-914.018"/>
</g>
<!-- risk_of_harm -->
<g id="node11" class="node"><title>risk_of_harm</title>
<polygon fill="none" stroke="black" points="1049.7,-698 882.753,-698 882.753,-662 1049.7,-662 1049.7,-698"/>
<text text-anchor="middle" x="966.226" y="-675.8" font-family="Times,serif" font-size="14.00">Someone is at risk of harm</text>
</g>
<!-- what_kind&#45;&gt;risk_of_harm -->
<g id="edge9" class="edge"><title>what_kind&#45;&gt;risk_of_harm</title>
<path fill="none" stroke="black" d="M3861.73,-816.155C3272.99,-788.674 1489.29,-705.415 1059.93,-685.374"/>
<polygon fill="black" stroke="black" points="1059.89,-681.868 1049.73,-684.898 1059.56,-688.86 1059.89,-681.868"/>
<text text-anchor="middle" x="2002.33" y="-718.8" font-family="Times,serif" font-size="14.00">Risk of Harm</text>
</g>
<!-- misuse_identity_work -->
<g id="node12" class="node"><title>misuse_identity_work</title>
<polygon fill="none" stroke="black" points="3885.71,-698 3690.75,-698 3690.75,-662 3885.71,-662 3885.71,-698"/>
<text text-anchor="middle" x="3788.23" y="-675.8" font-family="Times,serif" font-size="14.00">Misuse of your identity or work</text>
</g>
<!-- what_kind&#45;&gt;misuse_identity_work -->
<g id="edge10" class="edge"><title>what_kind&#45;&gt;misuse_identity_work</title>
<path fill="none" stroke="black" d="M3966.2,-778.446C3919.85,-753.069 3864.67,-722.853 3828.16,-702.867"/>
<polygon fill="black" stroke="black" points="3829.76,-699.749 3819.3,-698.016 3826.39,-705.889 3829.76,-699.749"/>
<text text-anchor="middle" x="3963.47" y="-718.8" font-family="Times,serif" font-size="14.00">Misuse of your identity or work</text>
</g>
<!-- gross_harmful_content -->
<g id="node13" class="node"><title>gross_harmful_content</title>
<polygon fill="none" stroke="black" points="4542.75,-698 4353.7,-698 4353.7,-662 4542.75,-662 4542.75,-698"/>
<text text-anchor="middle" x="4448.23" y="-675.8" font-family="Times,serif" font-size="14.00">This content is gross or hateful</text>
</g>
<!-- what_kind&#45;&gt;gross_harmful_content -->
<g id="edge11" class="edge"><title>what_kind&#45;&gt;gross_harmful_content</title>
<path fill="none" stroke="black" d="M4157.88,-786.316C4233.2,-758.995 4331.15,-723.465 4391.84,-701.451"/>
<polygon fill="black" stroke="black" points="4393.05,-704.737 4401.26,-698.037 4390.66,-698.157 4393.05,-704.737"/>
<text text-anchor="middle" x="4427.74" y="-718.8" font-family="Times,serif" font-size="14.00">This content is gross or hateful</text>
</g>
<!-- other_reason -->
<g id="node14" class="node"><title>other_reason</title>
<polygon fill="none" stroke="black" points="4854.42,-698 4734.03,-698 4734.03,-662 4854.42,-662 4854.42,-698"/>
<text text-anchor="middle" x="4794.23" y="-675.8" font-family="Times,serif" font-size="14.00">Some other reason</text>
</g>
<!-- what_kind&#45;&gt;other_reason -->
<g id="edge12" class="edge"><title>what_kind&#45;&gt;other_reason</title>
<path fill="none" stroke="black" d="M4190.54,-797.999C4349.12,-767.265 4601.91,-718.273 4723.87,-694.636"/>
<polygon fill="black" stroke="black" points="4724.69,-698.042 4733.84,-692.704 4723.36,-691.17 4724.69,-698.042"/>
<text text-anchor="middle" x="4646.32" y="-718.8" font-family="Times,serif" font-size="14.00">Some other reason</text>
</g>
<!-- harrassment -->
<g id="node15" class="node"><title>harrassment</title>
<polygon fill="none" stroke="black" points="831.158,-569 615.294,-569 615.294,-533 831.158,-533 831.158,-569"/>
<text text-anchor="middle" x="723.226" y="-546.8" font-family="Times,serif" font-size="14.00">Are you the person being harassed?</text>
</g>
<!-- risk_of_harm&#45;&gt;harrassment -->
<g id="edge13" class="edge"><title>risk_of_harm&#45;&gt;harrassment</title>
<path fill="none" stroke="black" d="M931.556,-661.909C920.234,-656.268 907.621,-649.921 896.136,-644 850.498,-620.469 798.538,-592.687 763.593,-573.857"/>
<polygon fill="black" stroke="black" points="765.113,-570.7 754.65,-569.033 761.789,-576.861 765.113,-570.7"/>
<text text-anchor="middle" x="929.271" y="-632.8" font-family="Times,serif" font-size="14.00">Harassment</text>
</g>
<!-- privacy_violation -->
<g id="node16" class="node"><title>privacy_violation</title>
<polygon fill="none" stroke="black" points="1083.14,-569 849.317,-569 849.317,-533 1083.14,-533 1083.14,-569"/>
<text text-anchor="middle" x="966.226" y="-546.8" font-family="Times,serif" font-size="14.00">Is it your privacy that&#39;s being violated?</text>
</g>
<!-- risk_of_harm&#45;&gt;privacy_violation -->
<g id="edge14" class="edge"><title>risk_of_harm&#45;&gt;privacy_violation</title>
<path fill="none" stroke="black" d="M966.226,-661.872C966.226,-640.758 966.226,-604.604 966.226,-579.564"/>
<polygon fill="black" stroke="black" points="969.726,-579.262 966.226,-569.262 962.726,-579.262 969.726,-579.262"/>
<text text-anchor="middle" x="1014.25" y="-632.8" font-family="Times,serif" font-size="14.00">Privacy violation</text>
</g>
<!-- harm_to_minors -->
<g id="node17" class="node"><title>harm_to_minors</title>
<polygon fill="none" stroke="Blue" points="1297.66,-591 1100.79,-591 1100.79,-511 1303.66,-511 1303.66,-585 1297.66,-591"/>
<polyline fill="none" stroke="Blue" points="1297.66,-591 1297.66,-585 "/>
<polyline fill="none" stroke="Blue" points="1303.66,-585 1297.66,-585 "/>
<text text-anchor="middle" x="1202.23" y="-575.8" font-family="Times,serif" font-size="14.00" fill="Blue">Harm to Minors</text>
<text text-anchor="middle" x="1202.23" y="-545.8" font-family="Times,serif" font-size="14.00" fill="Blue"> &#160;&#160;&#160;Content you&#39;re reporting: ____</text>
<text text-anchor="middle" x="1202.23" y="-531.8" font-family="Times,serif" font-size="14.00" fill="Blue"> &#160;&#160;&#160;Some explanation: ____</text>
<text text-anchor="middle" x="1202.23" y="-517.8" font-family="Times,serif" font-size="14.00" fill="Blue"> &#160;&#160;&#160;A little about yourself: ____</text>
</g>
<!-- risk_of_harm&#45;&gt;harm_to_minors -->
<g id="edge15" class="edge"><title>risk_of_harm&#45;&gt;harm_to_minors</title>
<path fill="none" stroke="black" d="M1023.08,-661.952C1037.46,-656.872 1052.67,-650.814 1066.23,-644 1092.54,-630.775 1119.76,-613.241 1142.88,-597.029"/>
<polygon fill="black" stroke="black" points="1145.07,-599.767 1151.2,-591.127 1141.02,-594.058 1145.07,-599.767"/>
<text text-anchor="middle" x="1134.55" y="-632.8" font-family="Times,serif" font-size="14.00">Harm to minors</text>
</g>
<!-- self_harm -->
<g id="node18" class="node"><title>self_harm</title>
<polygon fill="none" stroke="Blue" points="591.244,-584 363.208,-584 363.208,-518 597.244,-518 597.244,-578 591.244,-584"/>
<polyline fill="none" stroke="Blue" points="591.244,-584 591.244,-578 "/>
<polyline fill="none" stroke="Blue" points="597.244,-578 591.244,-578 "/>
<text text-anchor="middle" x="480.226" y="-568.8" font-family="Times,serif" font-size="14.00" fill="Blue">Promotion or glorification of self&#45;harm</text>
<text text-anchor="middle" x="480.226" y="-538.8" font-family="Times,serif" font-size="14.00" fill="Blue"> &#160;&#160;&#160;Content you&#39;re reporting: ____</text>
<text text-anchor="middle" x="480.226" y="-524.8" font-family="Times,serif" font-size="14.00" fill="Blue"> &#160;&#160;&#160;A little about yourself: ____</text>
</g>
<!-- risk_of_harm&#45;&gt;self_harm -->
<g id="edge16" class="edge"><title>risk_of_harm&#45;&gt;self_harm</title>
<path fill="none" stroke="black" d="M882.727,-678.286C818.343,-675.702 727.773,-667.6 651.871,-644 611.293,-631.383 569.187,-608.98 536.833,-589.44"/>
<polygon fill="black" stroke="black" points="538.332,-586.254 527.976,-584.016 534.676,-592.223 538.332,-586.254"/>
<text text-anchor="middle" x="760.904" y="-632.8" font-family="Times,serif" font-size="14.00">Promotion or glorification of self harm</text>
</g>
<!-- mis_non_attribution -->
<g id="node36" class="node"><title>mis_non_attribution</title>
<polygon fill="none" stroke="black" points="3918.49,-576 3657.96,-576 3657.96,-526 3918.49,-526 3918.49,-576"/>
<text text-anchor="middle" x="3788.23" y="-560.8" font-family="Times,serif" font-size="14.00">Misattribution or non&#45;attribution</text>
<text text-anchor="middle" x="3788.23" y="-546.8" font-family="Times,serif" font-size="14.00"> &#160;&#160;&#160;Is it your work that&#39;s being misattributed,</text>
<text text-anchor="middle" x="3788.23" y="-532.8" font-family="Times,serif" font-size="14.00"> &#160;&#160;&#160;or that&#39;s missing an attribution?</text>
</g>
<!-- misuse_identity_work&#45;&gt;mis_non_attribution -->
<g id="edge34" class="edge"><title>misuse_identity_work&#45;&gt;mis_non_attribution</title>
<path fill="none" stroke="black" d="M3788.23,-661.872C3788.23,-642.645 3788.23,-610.947 3788.23,-586.526"/>
<polygon fill="black" stroke="black" points="3791.73,-586.226 3788.23,-576.226 3784.73,-586.226 3791.73,-586.226"/>
</g>
<!-- copyright_infrigement -->
<g id="node37" class="node"><title>copyright_infrigement</title>
<polygon fill="none" stroke="black" points="3525.1,-584 3129.35,-584 3129.35,-518 3525.1,-518 3525.1,-584"/>
<text text-anchor="middle" x="3327.23" y="-568.8" font-family="Times,serif" font-size="14.00">Copyright infringement</text>
<text text-anchor="middle" x="3327.23" y="-554.8" font-family="Times,serif" font-size="14.00"> &#160;&#160;&#160;Did you originally post this work on Tumblr, or somewhere else?</text>
<text text-anchor="middle" x="3327.23" y="-524.8" font-family="Times,serif" font-size="14.00"> &#160;&#160;&#160;Error Here</text>
</g>
<!-- misuse_identity_work&#45;&gt;copyright_infrigement -->
<g id="edge35" class="edge"><title>misuse_identity_work&#45;&gt;copyright_infrigement</title>
<path fill="none" stroke="black" d="M3690.91,-670.513C3646.55,-665.211 3593.68,-656.863 3547.23,-644 3496.97,-630.082 3442.9,-607.584 3400.94,-588.321"/>
<polygon fill="black" stroke="black" points="3402.18,-585.038 3391.64,-584.011 3399.24,-591.39 3402.18,-585.038"/>
</g>
<!-- trademark_infringement -->
<g id="node38" class="node"><title>trademark_infringement</title>
<polygon fill="none" stroke="black" points="4313.74,-569 3936.71,-569 3936.71,-533 4313.74,-533 4313.74,-569"/>
<text text-anchor="middle" x="4125.23" y="-553.8" font-family="Times,serif" font-size="14.00">Trademark infringement</text>
<text text-anchor="middle" x="4125.23" y="-539.8" font-family="Times,serif" font-size="14.00"> &#160;&#160;&#160;Are you the trademark holder or an authorized representative?</text>
</g>
<!-- misuse_identity_work&#45;&gt;trademark_infringement -->
<g id="edge36" class="edge"><title>misuse_identity_work&#45;&gt;trademark_infringement</title>
<path fill="none" stroke="black" d="M3833.68,-661.872C3895.15,-638.705 4004.67,-597.431 4070.57,-572.599"/>
<polygon fill="black" stroke="black" points="4071.84,-575.86 4079.96,-569.059 4069.37,-569.31 4071.84,-575.86"/>
</g>
<!-- confusion_impersonation -->
<g id="node39" class="node"><title>confusion_impersonation</title>
<polygon fill="none" stroke="black" points="3111.4,-569 2795.05,-569 2795.05,-533 3111.4,-533 3111.4,-569"/>
<text text-anchor="middle" x="2953.23" y="-553.8" font-family="Times,serif" font-size="14.00">Confusion or impersonation</text>
<text text-anchor="middle" x="2953.23" y="-539.8" font-family="Times,serif" font-size="14.00"> &#160;&#160;&#160;Whose identity is being impersonated or confused?</text>
</g>
<!-- misuse_identity_work&#45;&gt;confusion_impersonation -->
<g id="edge37" class="edge"><title>misuse_identity_work&#45;&gt;confusion_impersonation</title>
<path fill="none" stroke="black" d="M3690.79,-676.678C3559.64,-671.869 3319.74,-657.127 3120.23,-612 3079.2,-602.721 3034.44,-586.275 3001.59,-572.945"/>
<polygon fill="black" stroke="black" points="3002.81,-569.66 2992.23,-569.098 3000.15,-576.135 3002.81,-569.66"/>
</g>
<!-- gore_mutilation_beastiality_necrophilia -->
<g id="node51" class="node"><title>gore_mutilation_beastiality_necrophilia</title>
<polygon fill="none" stroke="Blue" points="4827.81,-612 4582.64,-612 4582.64,-490 4833.81,-490 4833.81,-606 4827.81,-612"/>
<polyline fill="none" stroke="Blue" points="4827.81,-612 4827.81,-606 "/>
<polyline fill="none" stroke="Blue" points="4833.81,-606 4827.81,-606 "/>
<text text-anchor="middle" x="4708.23" y="-596.8" font-family="Times,serif" font-size="14.00" fill="Blue">Gore, mutilation, bestiality, or necrophilia</text>
<text text-anchor="middle" x="4708.23" y="-566.8" font-family="Times,serif" font-size="14.00" fill="Blue"> &#160;&#160;&#160;Content You&#39;re reporting: ____</text>
<text text-anchor="middle" x="4708.23" y="-552.8" font-family="Times,serif" font-size="14.00" fill="Blue"> &#160;&#160;&#160;Which of these things does it contain:</text>
<text text-anchor="middle" x="4708.23" y="-538.8" font-family="Times,serif" font-size="14.00" fill="Blue"> &#160;&#160;&#160;&#160;&#160;&#45; &#160;Gore</text>
<text text-anchor="middle" x="4708.23" y="-524.8" font-family="Times,serif" font-size="14.00" fill="Blue"> &#160;&#160;&#160;&#160;&#160;&#45; &#160;Beastiality</text>
<text text-anchor="middle" x="4708.23" y="-510.8" font-family="Times,serif" font-size="14.00" fill="Blue"> &#160;&#160;&#160;&#160;&#160;&#45; &#160;Necrophilia</text>
<text text-anchor="middle" x="4708.23" y="-496.8" font-family="Times,serif" font-size="14.00" fill="Blue"> &#160;&#160;&#160;A little about yourself: ____</text>
</g>
<!-- gross_harmful_content&#45;&gt;gore_mutilation_beastiality_necrophilia -->
<g id="edge51" class="edge"><title>gross_harmful_content&#45;&gt;gore_mutilation_beastiality_necrophilia</title>
<path fill="none" stroke="black" d="M4506,-661.933C4521.28,-656.78 4537.59,-650.692 4552.23,-644 4569.52,-636.097 4587.34,-626.795 4604.48,-617.196"/>
<polygon fill="black" stroke="black" points="4606.4,-620.131 4613.38,-612.156 4602.95,-614.041 4606.4,-620.131"/>
<text text-anchor="middle" x="4698.88" y="-632.8" font-family="Times,serif" font-size="14.00">Gore, mutilation, beastiality, or necrophilia</text>
</g>
<!-- malicious_speech -->
<g id="node52" class="node"><title>malicious_speech</title>
<polygon fill="none" stroke="Blue" points="4558.56,-591 4331.9,-591 4331.9,-511 4564.56,-511 4564.56,-585 4558.56,-591"/>
<polyline fill="none" stroke="Blue" points="4558.56,-591 4558.56,-585 "/>
<polyline fill="none" stroke="Blue" points="4564.56,-585 4558.56,-585 "/>
<text text-anchor="middle" x="4448.23" y="-575.8" font-family="Times,serif" font-size="14.00" fill="Blue">Malicious speech</text>
<text text-anchor="middle" x="4448.23" y="-545.8" font-family="Times,serif" font-size="14.00" fill="Blue"> &#160;&#160;&#160;Content You&#39;re reporting: ____</text>
<text text-anchor="middle" x="4448.23" y="-531.8" font-family="Times,serif" font-size="14.00" fill="Blue"> &#160;&#160;&#160;Describe how it violates TCG: ____</text>
<text text-anchor="middle" x="4448.23" y="-517.8" font-family="Times,serif" font-size="14.00" fill="Blue"> &#160;&#160;&#160;A little about yourself: ____</text>
</g>
<!-- gross_harmful_content&#45;&gt;malicious_speech -->
<g id="edge52" class="edge"><title>gross_harmful_content&#45;&gt;malicious_speech</title>
<path fill="none" stroke="black" d="M4448.23,-661.872C4448.23,-646.395 4448.23,-622.836 4448.23,-601.498"/>
<polygon fill="black" stroke="black" points="4451.73,-601.246 4448.23,-591.246 4444.73,-601.246 4451.73,-601.246"/>
<text text-anchor="middle" x="4498.19" y="-632.8" font-family="Times,serif" font-size="14.00">Malicious Speech</text>
</g>
<!-- some_other_reason -->
<g id="node53" class="node"><title>some_other_reason</title>
<polygon fill="none" stroke="Blue" points="5078.56,-591 4851.9,-591 4851.9,-511 5084.56,-511 5084.56,-585 5078.56,-591"/>
<polyline fill="none" stroke="Blue" points="5078.56,-591 5078.56,-585 "/>
<polyline fill="none" stroke="Blue" points="5084.56,-585 5078.56,-585 "/>
<text text-anchor="middle" x="4968.23" y="-575.8" font-family="Times,serif" font-size="14.00" fill="Blue">Some other reason</text>
<text text-anchor="middle" x="4968.23" y="-545.8" font-family="Times,serif" font-size="14.00" fill="Blue"> &#160;&#160;&#160;Content You&#39;re reporting: ____</text>
<text text-anchor="middle" x="4968.23" y="-531.8" font-family="Times,serif" font-size="14.00" fill="Blue"> &#160;&#160;&#160;Describe how it violates TCG: ____</text>
<text text-anchor="middle" x="4968.23" y="-517.8" font-family="Times,serif" font-size="14.00" fill="Blue"> &#160;&#160;&#160;A little about yourself: ____</text>
</g>
<!-- other_reason&#45;&gt;some_other_reason -->
<g id="edge53" class="edge"><title>other_reason&#45;&gt;some_other_reason</title>
<path fill="none" stroke="black" d="M4854.62,-672.748C4893.68,-667.425 4939.67,-658.319 4953.23,-644 4963.99,-632.623 4968.76,-616.696 4970.53,-601.287"/>
<polygon fill="black" stroke="black" points="4974.02,-601.526 4971.29,-591.289 4967.04,-600.994 4974.02,-601.526"/>
</g>
<!-- im_harrassed -->
<g id="node19" class="node"><title>im_harrassed</title>
<polygon fill="none" stroke="Blue" points="818.663,-404 621.789,-404 621.789,-338 824.663,-338 824.663,-398 818.663,-404"/>
<polyline fill="none" stroke="Blue" points="818.663,-404 818.663,-398 "/>
<polyline fill="none" stroke="Blue" points="824.663,-398 818.663,-398 "/>
<text text-anchor="middle" x="723.226" y="-388.8" font-family="Times,serif" font-size="14.00" fill="Blue">Harassment</text>
<text text-anchor="middle" x="723.226" y="-358.8" font-family="Times,serif" font-size="14.00" fill="Blue"> &#160;&#160;&#160;Content you&#39;re reporting: ____</text>
<text text-anchor="middle" x="723.226" y="-344.8" font-family="Times,serif" font-size="14.00" fill="Blue"> &#160;&#160;&#160;A little about yourself: ____</text>
</g>
<!-- harrassment&#45;&gt;im_harrassed -->
<g id="edge17" class="edge"><title>harrassment&#45;&gt;im_harrassed</title>
<path fill="none" stroke="black" d="M723.226,-532.933C723.226,-505.89 723.226,-452.382 723.226,-414.502"/>
<polygon fill="black" stroke="black" points="726.726,-414.267 723.226,-404.267 719.726,-414.267 726.726,-414.267"/>
<text text-anchor="middle" x="732.557" y="-460.8" font-family="Times,serif" font-size="14.00">yes</text>
</g>
<!-- someone_is_harrassed -->
<g id="node20" class="node"><title>someone_is_harrassed</title>
<polygon fill="none" stroke="Blue" points="598.663,-404 401.789,-404 401.789,-338 604.663,-338 604.663,-398 598.663,-404"/>
<polyline fill="none" stroke="Blue" points="598.663,-404 598.663,-398 "/>
<polyline fill="none" stroke="Blue" points="604.663,-398 598.663,-398 "/>
<text text-anchor="middle" x="503.226" y="-388.8" font-family="Times,serif" font-size="14.00" fill="Blue">Harassment</text>
<text text-anchor="middle" x="503.226" y="-358.8" font-family="Times,serif" font-size="14.00" fill="Blue"> &#160;&#160;&#160;Content you&#39;re reporting: ____</text>
<text text-anchor="middle" x="503.226" y="-344.8" font-family="Times,serif" font-size="14.00" fill="Blue"> &#160;&#160;&#160;A little about yourself: ____</text>
</g>
<!-- harrassment&#45;&gt;someone_is_harrassed -->
<g id="edge18" class="edge"><title>harrassment&#45;&gt;someone_is_harrassed</title>
<path fill="none" stroke="black" d="M702.132,-532.933C667.565,-504.965 598.015,-448.693 551.024,-410.673"/>
<polygon fill="black" stroke="black" points="553.082,-407.836 543.106,-404.267 548.679,-413.278 553.082,-407.836"/>
<text text-anchor="middle" x="634.226" y="-460.8" font-family="Times,serif" font-size="14.00">no</text>
</g>
<!-- myprivacy_beingviolated -->
<g id="node21" class="node"><title>myprivacy_beingviolated</title>
<polygon fill="none" stroke="black" points="2473.93,-389 2282.52,-389 2282.52,-353 2473.93,-353 2473.93,-389"/>
<text text-anchor="middle" x="2378.23" y="-366.8" font-family="Times,serif" font-size="14.00">What, specifically, was posted?</text>
</g>
<!-- privacy_violation&#45;&gt;myprivacy_beingviolated -->
<g id="edge19" class="edge"><title>privacy_violation&#45;&gt;myprivacy_beingviolated</title>
<path fill="none" stroke="black" d="M994.623,-532.888C1019.45,-518.821 1056.95,-499.686 1092.23,-490 1313.95,-429.122 2005.93,-390.047 2272.27,-376.918"/>
<polygon fill="black" stroke="black" points="2272.51,-380.41 2282.33,-376.424 2272.17,-373.418 2272.51,-380.41"/>
<text text-anchor="middle" x="1256.56" y="-460.8" font-family="Times,serif" font-size="14.00">yes</text>
</g>
<!-- someonesprivacy_beingviolated -->
<g id="node22" class="node"><title>someonesprivacy_beingviolated</title>
<polygon fill="none" stroke="black" points="1033.93,-389 842.521,-389 842.521,-353 1033.93,-353 1033.93,-389"/>
<text text-anchor="middle" x="938.226" y="-366.8" font-family="Times,serif" font-size="14.00">What, specifically, was posted?</text>
</g>
<!-- privacy_violation&#45;&gt;someonesprivacy_beingviolated -->
<g id="edge20" class="edge"><title>privacy_violation&#45;&gt;someonesprivacy_beingviolated</title>
<path fill="none" stroke="black" d="M963.541,-532.933C958.67,-501.966 948.341,-436.299 942.494,-399.129"/>
<polygon fill="black" stroke="black" points="945.914,-398.35 940.903,-389.016 938.999,-399.438 945.914,-398.35"/>
<text text-anchor="middle" x="961.226" y="-460.8" font-family="Times,serif" font-size="14.00">no</text>
</g>
<!-- my_name -->
<g id="node23" class="node"><title>my_name</title>
<polygon fill="none" stroke="Red" points="3558.19,-252 3178.27,-252 3178.27,-144 3558.19,-144 3558.19,-252"/>
<text text-anchor="middle" x="3368.23" y="-236.8" font-family="Times,serif" font-size="14.00" fill="Red">Name</text>
<text text-anchor="middle" x="3368.23" y="-206.8" font-family="Times,serif" font-size="14.00" fill="Red"> &#160;&#160;&#160;Unfortunately, your name isn&#39;t considered private information,</text>
<text text-anchor="middle" x="3368.23" y="-192.8" font-family="Times,serif" font-size="14.00" fill="Red"> &#160;&#160;&#160;and posting it isn&#39;t a violation of either the law or of our</text>
<text text-anchor="middle" x="3368.23" y="-178.8" font-family="Times,serif" font-size="14.00" fill="Red"> &#160;&#160;&#160;Community Guidelines. If you&#39;re uncomfortable with the post,</text>
<text text-anchor="middle" x="3368.23" y="-164.8" font-family="Times,serif" font-size="14.00" fill="Red"> &#160;&#160;&#160;try to communicate with the person who posted it and make</text>
<text text-anchor="middle" x="3368.23" y="-150.8" font-family="Times,serif" font-size="14.00" fill="Red"> &#160;&#160;&#160;your feelings on it known.</text>
</g>
<!-- myprivacy_beingviolated&#45;&gt;my_name -->
<g id="edge21" class="edge"><title>myprivacy_beingviolated&#45;&gt;my_name</title>
<path fill="none" stroke="black" d="M2397.47,-352.893C2417.36,-336.401 2450.09,-312.451 2483.23,-302 2588.41,-268.828 2869.5,-295.183 2979.23,-284 3061.26,-275.64 3083.88,-270.539 3168.17,-252.202"/>
<polygon fill="black" stroke="black" points="3169.17,-255.567 3178.2,-250.022 3167.68,-248.727 3169.17,-255.567"/>
<text text-anchor="middle" x="3107.86" y="-272.8" font-family="Times,serif" font-size="14.00">My name</text>
</g>
<!-- my_IP -->
<g id="node24" class="node"><title>my_IP</title>
<polygon fill="none" stroke="Red" points="2029.39,-252 1675.06,-252 1675.06,-144 2029.39,-144 2029.39,-252"/>
<text text-anchor="middle" x="1852.23" y="-236.8" font-family="Times,serif" font-size="14.00" fill="Red">IP address</text>
<text text-anchor="middle" x="1852.23" y="-206.8" font-family="Times,serif" font-size="14.00" fill="Red"> &#160;&#160;&#160;Unfortunately, your IP address isn&#39;t considered private</text>
<text text-anchor="middle" x="1852.23" y="-192.8" font-family="Times,serif" font-size="14.00" fill="Red"> &#160;&#160;&#160;information, and posting it isn&#39;t a violation of either</text>
<text text-anchor="middle" x="1852.23" y="-178.8" font-family="Times,serif" font-size="14.00" fill="Red"> &#160;&#160;&#160;the law or of our Community Guidelines. If you&#39;re</text>
<text text-anchor="middle" x="1852.23" y="-164.8" font-family="Times,serif" font-size="14.00" fill="Red"> &#160;&#160;&#160;uncomfortable with the post, try to communicate with the</text>
<text text-anchor="middle" x="1852.23" y="-150.8" font-family="Times,serif" font-size="14.00" fill="Red"> &#160;&#160;&#160;person who posted it and make your feelings on it known.</text>
</g>
<!-- myprivacy_beingviolated&#45;&gt;my_IP -->
<g id="edge22" class="edge"><title>myprivacy_beingviolated&#45;&gt;my_IP</title>
<path fill="none" stroke="black" d="M2325.87,-352.979C2256.26,-330.348 2129.83,-289.247 2025.09,-255.198"/>
<polygon fill="black" stroke="black" points="2025.94,-251.793 2015.35,-252.03 2023.78,-258.451 2025.94,-251.793"/>
<text text-anchor="middle" x="2140.41" y="-272.8" font-family="Times,serif" font-size="14.00">My IP address</text>
</g>
<!-- my_home -->
<g id="node25" class="node"><title>my_home</title>
<polygon fill="none" stroke="Blue" points="2250.68,-238 2047.77,-238 2047.77,-158 2256.68,-158 2256.68,-232 2250.68,-238"/>
<polyline fill="none" stroke="Blue" points="2250.68,-238 2250.68,-232 "/>
<polyline fill="none" stroke="Blue" points="2256.68,-232 2250.68,-232 "/>
<text text-anchor="middle" x="2152.23" y="-222.8" font-family="Times,serif" font-size="14.00" fill="Blue">Privacy Violation</text>
<text text-anchor="middle" x="2152.23" y="-192.8" font-family="Times,serif" font-size="14.00" fill="Blue"> &#160;&#160;&#160;Content you&#39;re reporting: ____</text>
<text text-anchor="middle" x="2152.23" y="-178.8" font-family="Times,serif" font-size="14.00" fill="Blue"> &#160;&#160;&#160;Source of the private info: ____</text>
<text text-anchor="middle" x="2152.23" y="-164.8" font-family="Times,serif" font-size="14.00" fill="Blue"> &#160;&#160;&#160;A little about yourself: ____</text>
</g>
<!-- myprivacy_beingviolated&#45;&gt;my_home -->
<g id="edge23" class="edge"><title>myprivacy_beingviolated&#45;&gt;my_home</title>
<path fill="none" stroke="black" d="M2343.14,-352.916C2312.43,-337.143 2267.36,-311.981 2232.32,-284 2218.15,-272.683 2204.1,-258.898 2191.82,-245.75"/>
<polygon fill="black" stroke="black" points="2194.15,-243.109 2184.81,-238.107 2188.99,-247.842 2194.15,-243.109"/>
<text text-anchor="middle" x="2304.18" y="-272.8" font-family="Times,serif" font-size="14.00">My private home address</text>
</g>
<!-- my_email -->
<g id="node26" class="node"><title>my_email</title>
<polygon fill="none" stroke="Blue" points="2476.68,-238 2273.77,-238 2273.77,-158 2482.68,-158 2482.68,-232 2476.68,-238"/>
<polyline fill="none" stroke="Blue" points="2476.68,-238 2476.68,-232 "/>
<polyline fill="none" stroke="Blue" points="2482.68,-232 2476.68,-232 "/>
<text text-anchor="middle" x="2378.23" y="-222.8" font-family="Times,serif" font-size="14.00" fill="Blue">Privacy Violation</text>
<text text-anchor="middle" x="2378.23" y="-192.8" font-family="Times,serif" font-size="14.00" fill="Blue"> &#160;&#160;&#160;Content you&#39;re reporting: ____</text>
<text text-anchor="middle" x="2378.23" y="-178.8" font-family="Times,serif" font-size="14.00" fill="Blue"> &#160;&#160;&#160;Source of the private info: ____</text>
<text text-anchor="middle" x="2378.23" y="-164.8" font-family="Times,serif" font-size="14.00" fill="Blue"> &#160;&#160;&#160;A little about yourself: ____</text>
</g>
<!-- myprivacy_beingviolated&#45;&gt;my_email -->
<g id="edge24" class="edge"><title>myprivacy_beingviolated&#45;&gt;my_email</title>
<path fill="none" stroke="black" d="M2378.23,-352.979C2378.23,-328.759 2378.23,-283.383 2378.23,-248.138"/>
<polygon fill="black" stroke="black" points="2381.73,-248.027 2378.23,-238.027 2374.73,-248.027 2381.73,-248.027"/>
<text text-anchor="middle" x="2449.18" y="-272.8" font-family="Times,serif" font-size="14.00">My private email address</text>
</g>
<!-- my_phone -->
<g id="node27" class="node"><title>my_phone</title>
<polygon fill="none" stroke="Blue" points="2702.68,-238 2499.77,-238 2499.77,-158 2708.68,-158 2708.68,-232 2702.68,-238"/>
<polyline fill="none" stroke="Blue" points="2702.68,-238 2702.68,-232 "/>
<polyline fill="none" stroke="Blue" points="2708.68,-232 2702.68,-232 "/>
<text text-anchor="middle" x="2604.23" y="-222.8" font-family="Times,serif" font-size="14.00" fill="Blue">Privacy Violation</text>
<text text-anchor="middle" x="2604.23" y="-192.8" font-family="Times,serif" font-size="14.00" fill="Blue"> &#160;&#160;&#160;Content you&#39;re reporting: ____</text>
<text text-anchor="middle" x="2604.23" y="-178.8" font-family="Times,serif" font-size="14.00" fill="Blue"> &#160;&#160;&#160;Source of the private info: ____</text>
<text text-anchor="middle" x="2604.23" y="-164.8" font-family="Times,serif" font-size="14.00" fill="Blue"> &#160;&#160;&#160;A little about yourself: ____</text>
</g>
<!-- myprivacy_beingviolated&#45;&gt;my_phone -->
<g id="edge25" class="edge"><title>myprivacy_beingviolated&#45;&gt;my_phone</title>
<path fill="none" stroke="black" d="M2402.16,-352.916C2423.01,-338.418 2454.36,-317.555 2483.23,-302 2500.75,-292.561 2507.97,-295.477 2524.23,-284 2539.45,-273.252 2554.06,-259.256 2566.54,-245.733"/>
<polygon fill="black" stroke="black" points="2569.14,-248.066 2573.24,-238.292 2563.94,-243.382 2569.14,-248.066"/>
<text text-anchor="middle" x="2597.24" y="-272.8" font-family="Times,serif" font-size="14.00">My private phone #</text>
</g>
<!-- my_pics -->
<g id="node28" class="node"><title>my_pics</title>
<polygon fill="none" stroke="Blue" points="2928.68,-245 2725.77,-245 2725.77,-151 2934.68,-151 2934.68,-239 2928.68,-245"/>
<polyline fill="none" stroke="Blue" points="2928.68,-245 2928.68,-239 "/>
<polyline fill="none" stroke="Blue" points="2934.68,-239 2928.68,-239 "/>
<text text-anchor="middle" x="2830.23" y="-229.8" font-family="Times,serif" font-size="14.00" fill="Blue">Privacy Violation</text>
<text text-anchor="middle" x="2830.23" y="-199.8" font-family="Times,serif" font-size="14.00" fill="Blue"> &#160;&#160;&#160;Proof of Identity: ____</text>
<text text-anchor="middle" x="2830.23" y="-185.8" font-family="Times,serif" font-size="14.00" fill="Blue"> &#160;&#160;&#160;Content you&#39;re reporting: ____</text>
<text text-anchor="middle" x="2830.23" y="-171.8" font-family="Times,serif" font-size="14.00" fill="Blue"> &#160;&#160;&#160;Source of the private info: ____</text>
<text text-anchor="middle" x="2830.23" y="-157.8" font-family="Times,serif" font-size="14.00" fill="Blue"> &#160;&#160;&#160;A little about yourself: ____</text>
</g>
<!-- myprivacy_beingviolated&#45;&gt;my_pics -->
<g id="edge26" class="edge"><title>myprivacy_beingviolated&#45;&gt;my_pics</title>
<path fill="none" stroke="black" d="M2398.38,-352.754C2418.45,-336.644 2450.87,-313.417 2483.23,-302 2556.13,-276.279 2581.91,-305.292 2656.23,-284 2685.12,-275.722 2715.05,-262.86 2741.77,-249.626"/>
<polygon fill="black" stroke="black" points="2743.35,-252.752 2750.7,-245.13 2740.2,-246.499 2743.35,-252.752"/>
<text text-anchor="middle" x="2755.51" y="-272.8" font-family="Times,serif" font-size="14.00">Private images of me</text>
</g>
<!-- my_etc -->
<g id="node29" class="node"><title>my_etc</title>
<polygon fill="none" stroke="Blue" points="3154.68,-238 2951.77,-238 2951.77,-158 3160.68,-158 3160.68,-232 3154.68,-238"/>
<polyline fill="none" stroke="Blue" points="3154.68,-238 3154.68,-232 "/>
<polyline fill="none" stroke="Blue" points="3160.68,-232 3154.68,-232 "/>
<text text-anchor="middle" x="3056.23" y="-222.8" font-family="Times,serif" font-size="14.00" fill="Blue">Privacy Violation</text>
<text text-anchor="middle" x="3056.23" y="-192.8" font-family="Times,serif" font-size="14.00" fill="Blue"> &#160;&#160;&#160;Content you&#39;re reporting: ____</text>
<text text-anchor="middle" x="3056.23" y="-178.8" font-family="Times,serif" font-size="14.00" fill="Blue"> &#160;&#160;&#160;Source of the private info: ____</text>
<text text-anchor="middle" x="3056.23" y="-164.8" font-family="Times,serif" font-size="14.00" fill="Blue"> &#160;&#160;&#160;A little about yourself: ____</text>
</g>
<!-- myprivacy_beingviolated&#45;&gt;my_etc -->
<g id="edge27" class="edge"><title>myprivacy_beingviolated&#45;&gt;my_etc</title>
<path fill="none" stroke="black" d="M2397.88,-352.705C2417.83,-336.317 2450.38,-312.669 2483.23,-302 2554.34,-278.897 2745.33,-295.399 2819.23,-284 2875.48,-275.324 2889.67,-271.279 2943.23,-252 2951.45,-249.04 2959.88,-245.698 2968.26,-242.167"/>
<polygon fill="black" stroke="black" points="2969.88,-245.281 2977.68,-238.111 2967.11,-238.851 2969.88,-245.281"/>
<text text-anchor="middle" x="2932.19" y="-272.8" font-family="Times,serif" font-size="14.00">Something else</text>
</g>
<!-- their_name -->
<g id="node30" class="node"><title>their_name</title>
<polygon fill="none" stroke="Red" points="1284.19,-252 904.267,-252 904.267,-144 1284.19,-144 1284.19,-252"/>
<text text-anchor="middle" x="1094.23" y="-236.8" font-family="Times,serif" font-size="14.00" fill="Red">Name</text>
<text text-anchor="middle" x="1094.23" y="-206.8" font-family="Times,serif" font-size="14.00" fill="Red"> &#160;&#160;&#160;Unfortunately, your name isn&#39;t considered private information,</text>
<text text-anchor="middle" x="1094.23" y="-192.8" font-family="Times,serif" font-size="14.00" fill="Red"> &#160;&#160;&#160;and posting it isn&#39;t a violation of either the law or of our</text>
<text text-anchor="middle" x="1094.23" y="-178.8" font-family="Times,serif" font-size="14.00" fill="Red"> &#160;&#160;&#160;Community Guidelines. If you&#39;re uncomfortable with the post,</text>
<text text-anchor="middle" x="1094.23" y="-164.8" font-family="Times,serif" font-size="14.00" fill="Red"> &#160;&#160;&#160;try to communicate with the person who posted it and make</text>
<text text-anchor="middle" x="1094.23" y="-150.8" font-family="Times,serif" font-size="14.00" fill="Red"> &#160;&#160;&#160;your feelings on it known.</text>
</g>
<!-- someonesprivacy_beingviolated&#45;&gt;their_name -->
<g id="edge28" class="edge"><title>someonesprivacy_beingviolated&#45;&gt;their_name</title>
<path fill="none" stroke="black" d="M953.754,-352.979C973.529,-331.302 1008.76,-292.679 1039,-259.54"/>
<polygon fill="black" stroke="black" points="1041.61,-261.871 1045.76,-252.124 1036.44,-257.153 1041.61,-261.871"/>
<text text-anchor="middle" x="1052.86" y="-272.8" font-family="Times,serif" font-size="14.00">My name</text>
</g>
<!-- their_IP -->
<g id="node31" class="node"><title>their_IP</title>
<polygon fill="none" stroke="Red" points="1656.39,-252 1302.06,-252 1302.06,-144 1656.39,-144 1656.39,-252"/>
<text text-anchor="middle" x="1479.23" y="-236.8" font-family="Times,serif" font-size="14.00" fill="Red">IP address</text>
<text text-anchor="middle" x="1479.23" y="-206.8" font-family="Times,serif" font-size="14.00" fill="Red"> &#160;&#160;&#160;Unfortunately, your IP address isn&#39;t considered private</text>
<text text-anchor="middle" x="1479.23" y="-192.8" font-family="Times,serif" font-size="14.00" fill="Red"> &#160;&#160;&#160;information, and posting it isn&#39;t a violation of either</text>
<text text-anchor="middle" x="1479.23" y="-178.8" font-family="Times,serif" font-size="14.00" fill="Red"> &#160;&#160;&#160;the law or of our Community Guidelines. If you&#39;re</text>
<text text-anchor="middle" x="1479.23" y="-164.8" font-family="Times,serif" font-size="14.00" fill="Red"> &#160;&#160;&#160;uncomfortable with the post, try to communicate with the</text>
<text text-anchor="middle" x="1479.23" y="-150.8" font-family="Times,serif" font-size="14.00" fill="Red"> &#160;&#160;&#160;person who posted it and make your feelings on it known.</text>
</g>
<!-- someonesprivacy_beingviolated&#45;&gt;their_IP -->
<g id="edge29" class="edge"><title>someonesprivacy_beingviolated&#45;&gt;their_IP</title>
<path fill="none" stroke="black" d="M992.077,-352.979C1063.75,-330.326 1193.97,-289.164 1301.76,-255.095"/>
<polygon fill="black" stroke="black" points="1302.97,-258.381 1311.45,-252.03 1300.86,-251.707 1302.97,-258.381"/>
<text text-anchor="middle" x="1281.41" y="-272.8" font-family="Times,serif" font-size="14.00">My IP address</text>
</g>
<!-- their_home -->
<g id="node32" class="node"><title>their_home</title>
<polygon fill="none" stroke="Blue" points="202.679,-238 -0.226566,-238 -0.226566,-158 208.679,-158 208.679,-232 202.679,-238"/>
<polyline fill="none" stroke="Blue" points="202.679,-238 202.679,-232 "/>
<polyline fill="none" stroke="Blue" points="208.679,-232 202.679,-232 "/>
<text text-anchor="middle" x="104.226" y="-222.8" font-family="Times,serif" font-size="14.00" fill="Blue">Privacy Violation</text>
<text text-anchor="middle" x="104.226" y="-192.8" font-family="Times,serif" font-size="14.00" fill="Blue"> &#160;&#160;&#160;Content you&#39;re reporting: ____</text>
<text text-anchor="middle" x="104.226" y="-178.8" font-family="Times,serif" font-size="14.00" fill="Blue"> &#160;&#160;&#160;Source of the private info: ____</text>
<text text-anchor="middle" x="104.226" y="-164.8" font-family="Times,serif" font-size="14.00" fill="Blue"> &#160;&#160;&#160;A little about yourself: ____</text>
</g>
<!-- someonesprivacy_beingviolated&#45;&gt;their_home -->
<g id="edge30" class="edge"><title>someonesprivacy_beingviolated&#45;&gt;their_home</title>
<path fill="none" stroke="black" d="M918.982,-352.9C899.093,-336.412 866.361,-312.466 833.226,-302 730.614,-269.589 455.914,-298.742 349.319,-284 289.482,-275.725 274.212,-272.037 217.226,-252 208.819,-249.044 200.197,-245.67 191.647,-242.089"/>
<polygon fill="black" stroke="black" points="192.979,-238.852 182.409,-238.131 190.223,-245.286 192.979,-238.852"/>
<text text-anchor="middle" x="421.18" y="-272.8" font-family="Times,serif" font-size="14.00">My private home address</text>
</g>
<!-- their_email -->
<g id="node33" class="node"><title>their_email</title>
<polygon fill="none" stroke="Blue" points="428.679,-238 225.773,-238 225.773,-158 434.679,-158 434.679,-232 428.679,-238"/>
<polyline fill="none" stroke="Blue" points="428.679,-238 428.679,-232 "/>
<polyline fill="none" stroke="Blue" points="434.679,-232 428.679,-232 "/>
<text text-anchor="middle" x="330.226" y="-222.8" font-family="Times,serif" font-size="14.00" fill="Blue">Privacy Violation</text>
<text text-anchor="middle" x="330.226" y="-192.8" font-family="Times,serif" font-size="14.00" fill="Blue"> &#160;&#160;&#160;Content you&#39;re reporting: ____</text>
<text text-anchor="middle" x="330.226" y="-178.8" font-family="Times,serif" font-size="14.00" fill="Blue"> &#160;&#160;&#160;Source of the private info: ____</text>
<text text-anchor="middle" x="330.226" y="-164.8" font-family="Times,serif" font-size="14.00" fill="Blue"> &#160;&#160;&#160;A little about yourself: ____</text>
</g>
<!-- someonesprivacy_beingviolated&#45;&gt;their_email -->
<g id="edge31" class="edge"><title>someonesprivacy_beingviolated&#45;&gt;their_email</title>
<path fill="none" stroke="black" d="M918.544,-352.786C898.572,-336.458 866.007,-312.856 833.226,-302 716.153,-263.228 677.868,-304.904 556.326,-284 504.842,-275.145 492.169,-270.263 443.226,-252 435.113,-248.973 426.78,-245.599 418.493,-242.061"/>
<polygon fill="black" stroke="black" points="419.736,-238.785 409.17,-238.007 416.944,-245.204 419.736,-238.785"/>
<text text-anchor="middle" x="628.176" y="-272.8" font-family="Times,serif" font-size="14.00">My private email address</text>
</g>
<!-- their_phone -->
<g id="node34" class="node"><title>their_phone</title>
<polygon fill="none" stroke="Blue" points="654.679,-238 451.773,-238 451.773,-158 660.679,-158 660.679,-232 654.679,-238"/>
<polyline fill="none" stroke="Blue" points="654.679,-238 654.679,-232 "/>
<polyline fill="none" stroke="Blue" points="660.679,-232 654.679,-232 "/>
<text text-anchor="middle" x="556.226" y="-222.8" font-family="Times,serif" font-size="14.00" fill="Blue">Privacy Violation</text>
<text text-anchor="middle" x="556.226" y="-192.8" font-family="Times,serif" font-size="14.00" fill="Blue"> &#160;&#160;&#160;Content you&#39;re reporting: ____</text>
<text text-anchor="middle" x="556.226" y="-178.8" font-family="Times,serif" font-size="14.00" fill="Blue"> &#160;&#160;&#160;Source of the private info: ____</text>
<text text-anchor="middle" x="556.226" y="-164.8" font-family="Times,serif" font-size="14.00" fill="Blue"> &#160;&#160;&#160;A little about yourself: ____</text>
</g>
<!-- someonesprivacy_beingviolated&#45;&gt;their_phone -->
<g id="edge32" class="edge"><title>someonesprivacy_beingviolated&#45;&gt;their_phone</title>
<path fill="none" stroke="black" d="M917.081,-352.731C896.797,-337.069 864.689,-314.567 833.226,-302 792.9,-285.893 778.52,-297.338 737.195,-284 703.666,-273.178 668.276,-257.576 637.772,-242.685"/>
<polygon fill="black" stroke="black" points="638.986,-239.381 628.469,-238.093 635.887,-245.658 638.986,-239.381"/>
<text text-anchor="middle" x="792.242" y="-272.8" font-family="Times,serif" font-size="14.00">My private phone #</text>
</g>
<!-- their_etc -->
<g id="node35" class="node"><title>their_etc</title>
<polygon fill="none" stroke="Blue" points="880.679,-238 677.773,-238 677.773,-158 886.679,-158 886.679,-232 880.679,-238"/>
<polyline fill="none" stroke="Blue" points="880.679,-238 880.679,-232 "/>
<polyline fill="none" stroke="Blue" points="886.679,-232 880.679,-232 "/>
<text text-anchor="middle" x="782.226" y="-222.8" font-family="Times,serif" font-size="14.00" fill="Blue">Privacy Violation</text>
<text text-anchor="middle" x="782.226" y="-192.8" font-family="Times,serif" font-size="14.00" fill="Blue"> &#160;&#160;&#160;Content you&#39;re reporting: ____</text>
<text text-anchor="middle" x="782.226" y="-178.8" font-family="Times,serif" font-size="14.00" fill="Blue"> &#160;&#160;&#160;Source of the private info: ____</text>
<text text-anchor="middle" x="782.226" y="-164.8" font-family="Times,serif" font-size="14.00" fill="Blue"> &#160;&#160;&#160;A little about yourself: ____</text>
</g>
<!-- someonesprivacy_beingviolated&#45;&gt;their_etc -->
<g id="edge33" class="edge"><title>someonesprivacy_beingviolated&#45;&gt;their_etc</title>
<path fill="none" stroke="black" d="M922.698,-352.979C900.034,-328.135 857.062,-281.032 824.588,-245.436"/>
<polygon fill="black" stroke="black" points="827.155,-243.055 817.829,-238.027 821.983,-247.773 827.155,-243.055"/>
<text text-anchor="middle" x="899.193" y="-272.8" font-family="Times,serif" font-size="14.00">Something else</text>
</g>
<!-- its_mine -->
<g id="node40" class="node"><title>its_mine</title>
<polygon fill="none" stroke="black" points="4092.1,-389 3710.35,-389 3710.35,-353 4092.1,-353 4092.1,-389"/>
<text text-anchor="middle" x="3901.23" y="-366.8" font-family="Times,serif" font-size="14.00">Did you originally post this work on Tumblr, or somewhere else?</text>
</g>
<!-- mis_non_attribution&#45;&gt;its_mine -->
<g id="edge38" class="edge"><title>mis_non_attribution&#45;&gt;its_mine</title>
<path fill="none" stroke="black" d="M3803.47,-525.994C3824.7,-492.544 3863.03,-432.16 3884.86,-397.784"/>
<polygon fill="black" stroke="black" points="3887.88,-399.547 3890.29,-389.229 3881.97,-395.796 3887.88,-399.547"/>
<text text-anchor="middle" x="3854.56" y="-460.8" font-family="Times,serif" font-size="14.00">yes</text>
</g>
<!-- not_mine -->
<g id="node41" class="node"><title>not_mine</title>
<polygon fill="none" stroke="Red" points="3692.36,-439 3450.09,-439 3450.09,-303 3692.36,-303 3692.36,-439"/>
<text text-anchor="middle" x="3571.23" y="-423.8" font-family="Times,serif" font-size="14.00" fill="Red">No</text>
<text text-anchor="middle" x="3571.23" y="-393.8" font-family="Times,serif" font-size="14.00" fill="Red"> &#160;&#160;&#160;Thanks for letting us know.</text>
<text text-anchor="middle" x="3571.23" y="-379.8" font-family="Times,serif" font-size="14.00" fill="Red"> &#160;&#160;&#160;Unfortunately, in situations like this,</text>
<text text-anchor="middle" x="3571.23" y="-365.8" font-family="Times,serif" font-size="14.00" fill="Red"> &#160;&#160;&#160;we need to hear directly from the user</text>
<text text-anchor="middle" x="3571.23" y="-351.8" font-family="Times,serif" font-size="14.00" fill="Red"> &#160;&#160;&#160;whose work has been misattributed,</text>
<text text-anchor="middle" x="3571.23" y="-337.8" font-family="Times,serif" font-size="14.00" fill="Red"> &#160;&#160;&#160;or is missing attribution.</text>
<text text-anchor="middle" x="3571.23" y="-323.8" font-family="Times,serif" font-size="14.00" fill="Red"> &#160;&#160;&#160;Get in contact with them if you can,</text>
<text text-anchor="middle" x="3571.23" y="-309.8" font-family="Times,serif" font-size="14.00" fill="Red"> &#160;&#160;&#160;and refer them to our abuse form .</text>
</g>
<!-- mis_non_attribution&#45;&gt;not_mine -->
<g id="edge39" class="edge"><title>mis_non_attribution&#45;&gt;not_mine</title>
<path fill="none" stroke="black" d="M3758.96,-525.994C3733.79,-505.35 3696.12,-474.447 3661.11,-445.731"/>
<polygon fill="black" stroke="black" points="3663.17,-442.895 3653.22,-439.258 3658.73,-448.307 3663.17,-442.895"/>
<text text-anchor="middle" x="3700.23" y="-460.8" font-family="Times,serif" font-size="14.00">no</text>
</g>
<!-- copyright_infrigement&#45;&gt;mis_non_attribution -->
<g id="edge44" class="edge"><title>copyright_infrigement&#45;&gt;mis_non_attribution</title>
<path fill="none" stroke="black" d="M3525.07,-551C3566.32,-551 3608.99,-551 3647.66,-551"/>
<polygon fill="black" stroke="black" points="3647.93,-554.5 3657.93,-551 3647.93,-547.5 3647.93,-554.5"/>
<text text-anchor="middle" x="3591.38" y="-556.8" font-family="Times,serif" font-size="14.00">I posted it to Tumblr</text>
</g>
<!-- posted_elsewhere2 -->
<g id="node46" class="node"><title>posted_elsewhere2</title>
<polygon fill="none" stroke="Red" points="3431.78,-411 3158.67,-411 3158.67,-331 3431.78,-331 3431.78,-411"/>
<text text-anchor="middle" x="3295.23" y="-395.8" font-family="Times,serif" font-size="14.00" fill="Red">You&#39;ll need to file a request under the</text>
<text text-anchor="middle" x="3295.23" y="-381.8" font-family="Times,serif" font-size="14.00" fill="Red"> &#160;&#160;&#160;Digital Millenium Copyright Act (DMCA).</text>
<text text-anchor="middle" x="3295.23" y="-367.8" font-family="Times,serif" font-size="14.00" fill="Red"> &#160;&#160;&#160;Don&#39;t worry, we&#39;ve got a form for that.</text>
<text text-anchor="middle" x="3295.23" y="-337.8" font-family="Times,serif" font-size="14.00" fill="Red"> &#160;&#160;&#160;&#45; File a DMCA request</text>
</g>
<!-- copyright_infrigement&#45;&gt;posted_elsewhere2 -->
<g id="edge45" class="edge"><title>copyright_infrigement&#45;&gt;posted_elsewhere2</title>
<path fill="none" stroke="black" d="M3321.43,-517.766C3316.59,-490.853 3309.62,-452.054 3304.08,-421.251"/>
<polygon fill="black" stroke="black" points="3307.48,-420.362 3302.26,-411.139 3300.59,-421.601 3307.48,-420.362"/>
<text text-anchor="middle" x="3387.48" y="-460.8" font-family="Times,serif" font-size="14.00">I posted it somewhere else</text>
</g>
<!-- trademark_holder -->
<g id="node47" class="node"><title>trademark_holder</title>
<polygon fill="none" stroke="Blue" points="4763,-425 4425.46,-425 4425.46,-317 4769,-317 4769,-419 4763,-425"/>
<polyline fill="none" stroke="Blue" points="4763,-425 4763,-419 "/>
<polyline fill="none" stroke="Blue" points="4769,-419 4763,-419 "/>
<text text-anchor="middle" x="4597.23" y="-409.8" font-family="Times,serif" font-size="14.00" fill="Blue">Trademark Infringement</text>
<text text-anchor="middle" x="4597.23" y="-379.8" font-family="Times,serif" font-size="14.00" fill="Blue"> &#160;&#160;&#160;Your Information: ____</text>
<text text-anchor="middle" x="4597.23" y="-365.8" font-family="Times,serif" font-size="14.00" fill="Blue"> &#160;&#160;&#160;Trademark Information: ____</text>
<text text-anchor="middle" x="4597.23" y="-351.8" font-family="Times,serif" font-size="14.00" fill="Blue"> &#160;&#160;&#160;Registration Documentation: ____</text>
<text text-anchor="middle" x="4597.23" y="-337.8" font-family="Times,serif" font-size="14.00" fill="Blue"> &#160;&#160;&#160;How is this content infringing your trademark(s)?: ____</text>
<text text-anchor="middle" x="4597.23" y="-323.8" font-family="Times,serif" font-size="14.00" fill="Blue"> &#160;&#160;&#160;Toggle</text>
</g>
<!-- trademark_infringement&#45;&gt;trademark_holder -->
<g id="edge46" class="edge"><title>trademark_infringement&#45;&gt;trademark_holder</title>
<path fill="none" stroke="black" d="M4170.48,-532.933C4233.68,-509.101 4351.37,-464.716 4447.18,-428.586"/>
<polygon fill="black" stroke="black" points="4448.55,-431.808 4456.67,-425.005 4446.08,-425.259 4448.55,-431.808"/>
<text text-anchor="middle" x="4371.42" y="-460.8" font-family="Times,serif" font-size="14.00">Yes</text>
</g>
<!-- trademark_nonholder -->
<g id="node48" class="node"><title>trademark_nonholder</title>
<polygon fill="none" stroke="Red" points="4407.17,-440 4109.28,-440 4109.28,-302 4407.17,-302 4407.17,-440"/>
<text text-anchor="middle" x="4258.23" y="-424.8" font-family="Times,serif" font-size="14.00" fill="Red">No</text>
<text text-anchor="middle" x="4258.23" y="-394.8" font-family="Times,serif" font-size="14.00" fill="Red"> &#160;&#160;&#160;Thanks for bringing this to our attention,</text>
<text text-anchor="middle" x="4258.23" y="-380.8" font-family="Times,serif" font-size="14.00" fill="Red"> &#160;&#160;&#160;but we need to hear directly from the trademark</text>
<text text-anchor="middle" x="4258.23" y="-366.8" font-family="Times,serif" font-size="14.00" fill="Red"> &#160;&#160;&#160;holder or their authorized representative.</text>
<text text-anchor="middle" x="4258.23" y="-352.8" font-family="Times,serif" font-size="14.00" fill="Red"> &#160;&#160;&#160;Get in contact with them if you can,</text>
<text text-anchor="middle" x="4258.23" y="-338.8" font-family="Times,serif" font-size="14.00" fill="Red"> &#160;&#160;&#160;and refer them to our abuse form.</text>
<text text-anchor="middle" x="4258.23" y="-308.8" font-family="Times,serif" font-size="14.00" fill="Red"> &#160;&#160;&#160;&#45; Got it</text>
</g>
<!-- trademark_infringement&#45;&gt;trademark_nonholder -->
<g id="edge47" class="edge"><title>trademark_infringement&#45;&gt;trademark_nonholder</title>
<path fill="none" stroke="black" d="M4137.98,-532.933C4152.6,-513.363 4177.58,-479.933 4200.99,-448.596"/>
<polygon fill="black" stroke="black" points="4204.04,-450.363 4207.23,-440.257 4198.44,-446.173 4204.04,-450.363"/>
<text text-anchor="middle" x="4199.78" y="-460.8" font-family="Times,serif" font-size="14.00">No</text>
</g>
<!-- confusion_impersonation&#45;&gt;trademark_infringement -->
<g id="edge49" class="edge"><title>confusion_impersonation&#45;&gt;trademark_infringement</title>
<path fill="none" stroke="black" d="M2992.05,-569.077C3025.28,-583.59 3074.81,-602.983 3120.23,-612 3296.13,-646.924 3751.11,-645.797 3927.23,-612 3975.42,-602.751 4028.49,-586.034 4067.54,-572.436"/>
<polygon fill="black" stroke="black" points="4068.88,-575.674 4077.15,-569.053 4066.56,-569.071 4068.88,-575.674"/>
<text text-anchor="middle" x="3627.23" y="-632.8" font-family="Times,serif" font-size="14.00">My company, brand, or org</text>
</g>
<!-- myown -->
<g id="node49" class="node"><title>myown</title>
<polygon fill="none" stroke="Blue" points="2804.44,-411 2492.01,-411 2492.01,-331 2810.44,-331 2810.44,-405 2804.44,-411"/>
<polyline fill="none" stroke="Blue" points="2804.44,-411 2804.44,-405 "/>
<polyline fill="none" stroke="Blue" points="2810.44,-405 2804.44,-405 "/>
<text text-anchor="middle" x="2651.23" y="-395.8" font-family="Times,serif" font-size="14.00" fill="Blue">Confusion or impersonation</text>
<text text-anchor="middle" x="2651.23" y="-365.8" font-family="Times,serif" font-size="14.00" fill="Blue"> &#160;Some information about you: ____</text>
<text text-anchor="middle" x="2651.23" y="-351.8" font-family="Times,serif" font-size="14.00" fill="Blue"> &#160;Where confusion or impersonation takes place: ____</text>
<text text-anchor="middle" x="2651.23" y="-337.8" font-family="Times,serif" font-size="14.00" fill="Blue"> &#160;Explain how you&#39;re being impersonated: ____</text>
</g>
<!-- confusion_impersonation&#45;&gt;myown -->
<g id="edge48" class="edge"><title>confusion_impersonation&#45;&gt;myown</title>
<path fill="none" stroke="black" d="M2924.27,-532.933C2879.15,-506.338 2790.61,-454.15 2726.56,-416.4"/>
<polygon fill="black" stroke="black" points="2728.08,-413.235 2717.69,-411.173 2724.53,-419.266 2728.08,-413.235"/>
<text text-anchor="middle" x="2846.31" y="-460.8" font-family="Times,serif" font-size="14.00">My Own</text>
</g>
<!-- someone_elses -->
<g id="node50" class="node"><title>someone_elses</title>
<polygon fill="none" stroke="Red" points="3140.67,-440 2827.78,-440 2827.78,-302 3140.67,-302 3140.67,-440"/>
<text text-anchor="middle" x="2984.23" y="-424.8" font-family="Times,serif" font-size="14.00" fill="Red">Someone else&#39;s</text>
<text text-anchor="middle" x="2984.23" y="-394.8" font-family="Times,serif" font-size="14.00" fill="Red"> &#160;&#160;&#160;&#160;&#160;We appreciate your bringing this to our attention.</text>
<text text-anchor="middle" x="2984.23" y="-380.8" font-family="Times,serif" font-size="14.00" fill="Red"> &#160;&#160;&#160;&#160;&#160;In these cases, we need to hear directly from the</text>
<text text-anchor="middle" x="2984.23" y="-366.8" font-family="Times,serif" font-size="14.00" fill="Red"> &#160;&#160;&#160;&#160;&#160;person being impersonated by this blog.</text>
<text text-anchor="middle" x="2984.23" y="-352.8" font-family="Times,serif" font-size="14.00" fill="Red"> &#160;&#160;&#160;&#160;&#160;Get in contact with them if you can, and refer</text>
<text text-anchor="middle" x="2984.23" y="-338.8" font-family="Times,serif" font-size="14.00" fill="Red"> &#160;&#160;&#160;&#160;&#160;them to our abuse form.</text>
<text text-anchor="middle" x="2984.23" y="-308.8" font-family="Times,serif" font-size="14.00" fill="Red"> &#160;&#160;&#160;&#45; Got it</text>
</g>
<!-- confusion_impersonation&#45;&gt;someone_elses -->
<g id="edge50" class="edge"><title>confusion_impersonation&#45;&gt;someone_elses</title>
<path fill="none" stroke="black" d="M2956.2,-532.933C2959.55,-513.696 2965.23,-481.067 2970.61,-450.198"/>
<polygon fill="black" stroke="black" points="2974.07,-450.709 2972.34,-440.257 2967.17,-449.508 2974.07,-450.709"/>
<text text-anchor="middle" x="3011.9" y="-460.8" font-family="Times,serif" font-size="14.00">Someone else&#39;s</text>
</g>
<!-- posted_to_tumblr -->
<g id="node42" class="node"><title>posted_to_tumblr</title>
<polygon fill="none" stroke="black" points="4198.77,-216 3903.68,-216 3903.68,-180 4198.77,-180 4198.77,-216"/>
<text text-anchor="middle" x="4051.23" y="-193.8" font-family="Times,serif" font-size="14.00">Which of the following best describes your issue?</text>
</g>
<!-- its_mine&#45;&gt;posted_to_tumblr -->
<g id="edge40" class="edge"><title>its_mine&#45;&gt;posted_to_tumblr</title>
<path fill="none" stroke="black" d="M3916.16,-352.979C3942.71,-322.712 3998.24,-259.406 4029.19,-224.121"/>
<polygon fill="black" stroke="black" points="4032.17,-226.032 4036.13,-216.206 4026.91,-221.416 4032.17,-226.032"/>
<text text-anchor="middle" x="4041.8" y="-272.8" font-family="Times,serif" font-size="14.00">I posted it to Tumblr</text>
</g>
<!-- posted_elsewhere -->
<g id="node43" class="node"><title>posted_elsewhere</title>
<polygon fill="none" stroke="Red" points="3885.78,-238 3612.67,-238 3612.67,-158 3885.78,-158 3885.78,-238"/>
<text text-anchor="middle" x="3749.23" y="-222.8" font-family="Times,serif" font-size="14.00" fill="Red">You&#39;ll need to file a request under the</text>
<text text-anchor="middle" x="3749.23" y="-208.8" font-family="Times,serif" font-size="14.00" fill="Red"> &#160;&#160;&#160;Digital Millenium Copyright Act (DMCA).</text>
<text text-anchor="middle" x="3749.23" y="-194.8" font-family="Times,serif" font-size="14.00" fill="Red"> &#160;&#160;&#160;Don&#39;t worry, we&#39;ve got a form for that.</text>
<text text-anchor="middle" x="3749.23" y="-164.8" font-family="Times,serif" font-size="14.00" fill="Red"> &#160;&#160;&#160;&#45; File a DMCA request</text>
</g>
<!-- its_mine&#45;&gt;posted_elsewhere -->
<g id="edge41" class="edge"><title>its_mine&#45;&gt;posted_elsewhere</title>
<path fill="none" stroke="black" d="M3886.1,-352.979C3864.11,-328.239 3822.49,-281.426 3790.9,-245.883"/>
<polygon fill="black" stroke="black" points="3793.18,-243.175 3783.92,-238.027 3787.94,-247.826 3793.18,-243.175"/>
<text text-anchor="middle" x="3895.48" y="-272.8" font-family="Times,serif" font-size="14.00">I posted it somewhere else</text>
</g>
<!-- someone_reposted -->
<g id="node44" class="node"><title>someone_reposted</title>
<polygon fill="none" stroke="Blue" points="4035.49,-80 3842.97,-80 3842.97,-0 4041.49,-0 4041.49,-74 4035.49,-80"/>
<polyline fill="none" stroke="Blue" points="4035.49,-80 4035.49,-74 "/>
<polyline fill="none" stroke="Blue" points="4041.49,-74 4035.49,-74 "/>
<text text-anchor="middle" x="3942.23" y="-64.8" font-family="Times,serif" font-size="14.00" fill="Blue">Misattribution or non&#45;attribution</text>
<text text-anchor="middle" x="3942.23" y="-34.8" font-family="Times,serif" font-size="14.00" fill="Blue"> &#160;&#160;&#160;Original content URL: ____</text>
<text text-anchor="middle" x="3942.23" y="-20.8" font-family="Times,serif" font-size="14.00" fill="Blue"> &#160;&#160;&#160;Repost: ____</text>
<text text-anchor="middle" x="3942.23" y="-6.8" font-family="Times,serif" font-size="14.00" fill="Blue"> &#160;&#160;&#160;A little about yourself: ____</text>
</g>
<!-- posted_to_tumblr&#45;&gt;someone_reposted -->
<g id="edge42" class="edge"><title>posted_to_tumblr&#45;&gt;someone_reposted</title>
<path fill="none" stroke="black" d="M4016.47,-179.751C3995.71,-167.603 3970.69,-149.352 3956.47,-126 3950.03,-115.416 3946.26,-102.785 3944.12,-90.539"/>
<polygon fill="black" stroke="black" points="3947.55,-89.8024 3942.67,-80.396 3940.62,-90.7897 3947.55,-89.8024"/>
<text text-anchor="middle" x="4026.6" y="-114.8" font-family="Times,serif" font-size="14.00">Someone reposted it</text>
<text text-anchor="middle" x="4026.6" y="-100.8" font-family="Times,serif" font-size="14.00"> &#160;instead of reblogging it.</text>
</g>
<!-- someone_reblogged -->
<g id="node45" class="node"><title>someone_reblogged</title>
<polygon fill="none" stroke="Blue" points="4252.49,-80 4059.97,-80 4059.97,-0 4258.49,-0 4258.49,-74 4252.49,-80"/>
<polyline fill="none" stroke="Blue" points="4252.49,-80 4252.49,-74 "/>
<polyline fill="none" stroke="Blue" points="4258.49,-74 4252.49,-74 "/>
<text text-anchor="middle" x="4159.23" y="-64.8" font-family="Times,serif" font-size="14.00" fill="Blue">Misattribution or non&#45;attribution</text>
<text text-anchor="middle" x="4159.23" y="-34.8" font-family="Times,serif" font-size="14.00" fill="Blue"> &#160;&#160;&#160;Original content URL: ____</text>
<text text-anchor="middle" x="4159.23" y="-20.8" font-family="Times,serif" font-size="14.00" fill="Blue"> &#160;&#160;&#160;Reblog: ____</text>
<text text-anchor="middle" x="4159.23" y="-6.8" font-family="Times,serif" font-size="14.00" fill="Blue"> &#160;&#160;&#160;A little about yourself: ____</text>
</g>
<!-- posted_to_tumblr&#45;&gt;someone_reblogged -->
<g id="edge43" class="edge"><title>posted_to_tumblr&#45;&gt;someone_reblogged</title>
<path fill="none" stroke="black" d="M4063.2,-179.709C4078.31,-157.883 4104.91,-119.46 4126.29,-88.5799"/>
<polygon fill="black" stroke="black" points="4129.35,-90.3044 4132.16,-80.0902 4123.59,-86.3199 4129.35,-90.3044"/>
<text text-anchor="middle" x="4238.72" y="-114.8" font-family="Times,serif" font-size="14.00">Someone reblogged it</text>
<text text-anchor="middle" x="4238.72" y="-100.8" font-family="Times,serif" font-size="14.00"> &#160;and injected a link back to their own blog.</text>
</g>
</g>
</svg>
